# Tiled2Unity generated file. Do not modify by hand.
# Wavefront file for 'Test-Room_mesh_0001.obj'

# Vertices (Count = 416)
v -1.28 -0.96 0
v -1.6 -0.96 0
v -1.6 -0.64 0
v -1.28 -0.64 0
v -1.6 -0.96 0
v -1.92 -0.96 0
v -1.92 -0.64 0
v -1.6 -0.64 0
v -1.92 -0.96 0
v -2.24 -0.96 0
v -2.24 -0.64 0
v -1.92 -0.64 0
v -2.24 -0.96 0
v -2.56 -0.96 0
v -2.56 -0.64 0
v -2.24 -0.64 0
v -2.56 -0.96 0
v -2.88 -0.96 0
v -2.88 -0.64 0
v -2.56 -0.64 0
v -2.88 -0.96 0
v -3.2 -0.96 0
v -3.2 -0.64 0
v -2.88 -0.64 0
v -3.2 -0.96 0
v -3.52 -0.96 0
v -3.52 -0.64 0
v -3.2 -0.64 0
v -3.52 -0.96 0
v -3.84 -0.96 0
v -3.84 -0.64 0
v -3.52 -0.64 0
v -3.84 -0.96 0
v -4.16 -0.96 0
v -4.16 -0.64 0
v -3.84 -0.64 0
v -4.16 -0.96 0
v -4.48 -0.96 0
v -4.48 -0.64 0
v -4.16 -0.64 0
v -1.28 -1.28 0
v -1.6 -1.28 0
v -1.6 -0.96 0
v -1.28 -0.96 0
v -1.6 -1.28 0
v -1.92 -1.28 0
v -1.92 -0.96 0
v -1.6 -0.96 0
v -1.92 -1.28 0
v -2.24 -1.28 0
v -2.24 -0.96 0
v -1.92 -0.96 0
v -2.24 -1.28 0
v -2.56 -1.28 0
v -2.56 -0.96 0
v -2.24 -0.96 0
v -2.56 -1.28 0
v -2.88 -1.28 0
v -2.88 -0.96 0
v -2.56 -0.96 0
v -2.88 -1.28 0
v -3.2 -1.28 0
v -3.2 -0.96 0
v -2.88 -0.96 0
v -3.2 -1.28 0
v -3.52 -1.28 0
v -3.52 -0.96 0
v -3.2 -0.96 0
v -3.52 -1.28 0
v -3.84 -1.28 0
v -3.84 -0.96 0
v -3.52 -0.96 0
v -3.84 -1.28 0
v -4.16 -1.28 0
v -4.16 -0.96 0
v -3.84 -0.96 0
v -4.16 -1.28 0
v -4.48 -1.28 0
v -4.48 -0.96 0
v -4.16 -0.96 0
v -1.28 -1.6 0
v -1.6 -1.6 0
v -1.6 -1.28 0
v -1.28 -1.28 0
v -1.6 -1.6 0
v -1.92 -1.6 0
v -1.92 -1.28 0
v -1.6 -1.28 0
v -1.92 -1.6 0
v -2.24 -1.6 0
v -2.24 -1.28 0
v -1.92 -1.28 0
v -2.24 -1.6 0
v -2.56 -1.6 0
v -2.56 -1.28 0
v -2.24 -1.28 0
v -2.56 -1.6 0
v -2.88 -1.6 0
v -2.88 -1.28 0
v -2.56 -1.28 0
v -2.88 -1.6 0
v -3.2 -1.6 0
v -3.2 -1.28 0
v -2.88 -1.28 0
v -3.2 -1.6 0
v -3.52 -1.6 0
v -3.52 -1.28 0
v -3.2 -1.28 0
v -3.52 -1.6 0
v -3.84 -1.6 0
v -3.84 -1.28 0
v -3.52 -1.28 0
v -3.84 -1.6 0
v -4.16 -1.6 0
v -4.16 -1.28 0
v -3.84 -1.28 0
v -4.16 -1.6 0
v -4.48 -1.6 0
v -4.48 -1.28 0
v -4.16 -1.28 0
v -1.28 -1.92 0
v -1.6 -1.92 0
v -1.6 -1.6 0
v -1.28 -1.6 0
v -1.6 -1.92 0
v -1.92 -1.92 0
v -1.92 -1.6 0
v -1.6 -1.6 0
v -1.92 -1.92 0
v -2.24 -1.92 0
v -2.24 -1.6 0
v -1.92 -1.6 0
v -2.24 -1.92 0
v -2.56 -1.92 0
v -2.56 -1.6 0
v -2.24 -1.6 0
v -2.56 -1.92 0
v -2.88 -1.92 0
v -2.88 -1.6 0
v -2.56 -1.6 0
v -2.88 -1.92 0
v -3.2 -1.92 0
v -3.2 -1.6 0
v -2.88 -1.6 0
v -3.2 -1.92 0
v -3.52 -1.92 0
v -3.52 -1.6 0
v -3.2 -1.6 0
v -3.52 -1.92 0
v -3.84 -1.92 0
v -3.84 -1.6 0
v -3.52 -1.6 0
v -3.84 -1.92 0
v -4.16 -1.92 0
v -4.16 -1.6 0
v -3.84 -1.6 0
v -4.16 -1.92 0
v -4.48 -1.92 0
v -4.48 -1.6 0
v -4.16 -1.6 0
v -4.48 -1.92 0
v -4.8 -1.92 0
v -4.8 -1.6 0
v -4.48 -1.6 0
v -4.8 -1.92 0
v -5.12 -1.92 0
v -5.12 -1.6 0
v -4.8 -1.6 0
v -5.12 -1.92 0
v -5.44 -1.92 0
v -5.44 -1.6 0
v -5.12 -1.6 0
v -1.28 -2.24 0
v -1.6 -2.24 0
v -1.6 -1.92 0
v -1.28 -1.92 0
v -1.6 -2.24 0
v -1.92 -2.24 0
v -1.92 -1.92 0
v -1.6 -1.92 0
v -1.92 -2.24 0
v -2.24 -2.24 0
v -2.24 -1.92 0
v -1.92 -1.92 0
v -2.24 -2.24 0
v -2.56 -2.24 0
v -2.56 -1.92 0
v -2.24 -1.92 0
v -2.56 -2.24 0
v -2.88 -2.24 0
v -2.88 -1.92 0
v -2.56 -1.92 0
v -2.88 -2.24 0
v -3.2 -2.24 0
v -3.2 -1.92 0
v -2.88 -1.92 0
v -3.2 -2.24 0
v -3.52 -2.24 0
v -3.52 -1.92 0
v -3.2 -1.92 0
v -3.52 -2.24 0
v -3.84 -2.24 0
v -3.84 -1.92 0
v -3.52 -1.92 0
v -3.84 -2.24 0
v -4.16 -2.24 0
v -4.16 -1.92 0
v -3.84 -1.92 0
v -4.16 -2.24 0
v -4.48 -2.24 0
v -4.48 -1.92 0
v -4.16 -1.92 0
v -4.48 -2.24 0
v -4.8 -2.24 0
v -4.8 -1.92 0
v -4.48 -1.92 0
v -4.8 -2.24 0
v -5.12 -2.24 0
v -5.12 -1.92 0
v -4.8 -1.92 0
v -5.12 -2.24 0
v -5.44 -2.24 0
v -5.44 -1.92 0
v -5.12 -1.92 0
v -1.28 -2.56 0
v -1.6 -2.56 0
v -1.6 -2.24 0
v -1.28 -2.24 0
v -1.6 -2.56 0
v -1.92 -2.56 0
v -1.92 -2.24 0
v -1.6 -2.24 0
v -1.92 -2.56 0
v -2.24 -2.56 0
v -2.24 -2.24 0
v -1.92 -2.24 0
v -2.24 -2.56 0
v -2.56 -2.56 0
v -2.56 -2.24 0
v -2.24 -2.24 0
v -2.56 -2.56 0
v -2.88 -2.56 0
v -2.88 -2.24 0
v -2.56 -2.24 0
v -2.88 -2.56 0
v -3.2 -2.56 0
v -3.2 -2.24 0
v -2.88 -2.24 0
v -3.2 -2.56 0
v -3.52 -2.56 0
v -3.52 -2.24 0
v -3.2 -2.24 0
v -3.52 -2.56 0
v -3.84 -2.56 0
v -3.84 -2.24 0
v -3.52 -2.24 0
v -3.84 -2.56 0
v -4.16 -2.56 0
v -4.16 -2.24 0
v -3.84 -2.24 0
v -4.16 -2.56 0
v -4.48 -2.56 0
v -4.48 -2.24 0
v -4.16 -2.24 0
v -4.48 -2.56 0
v -4.8 -2.56 0
v -4.8 -2.24 0
v -4.48 -2.24 0
v -4.8 -2.56 0
v -5.12 -2.56 0
v -5.12 -2.24 0
v -4.8 -2.24 0
v -5.12 -2.56 0
v -5.44 -2.56 0
v -5.44 -2.24 0
v -5.12 -2.24 0
v -3.2 -2.88 0
v -3.52 -2.88 0
v -3.52 -2.56 0
v -3.2 -2.56 0
v -3.52 -2.88 0
v -3.84 -2.88 0
v -3.84 -2.56 0
v -3.52 -2.56 0
v -3.84 -2.88 0
v -4.16 -2.88 0
v -4.16 -2.56 0
v -3.84 -2.56 0
v -4.16 -2.88 0
v -4.48 -2.88 0
v -4.48 -2.56 0
v -4.16 -2.56 0
v -4.48 -2.88 0
v -4.8 -2.88 0
v -4.8 -2.56 0
v -4.48 -2.56 0
v -4.8 -2.88 0
v -5.12 -2.88 0
v -5.12 -2.56 0
v -4.8 -2.56 0
v -5.12 -2.88 0
v -5.44 -2.88 0
v -5.44 -2.56 0
v -5.12 -2.56 0
v -3.2 -3.2 0
v -3.52 -3.2 0
v -3.52 -2.88 0
v -3.2 -2.88 0
v -3.52 -3.2 0
v -3.84 -3.2 0
v -3.84 -2.88 0
v -3.52 -2.88 0
v -3.84 -3.2 0
v -4.16 -3.2 0
v -4.16 -2.88 0
v -3.84 -2.88 0
v -4.16 -3.2 0
v -4.48 -3.2 0
v -4.48 -2.88 0
v -4.16 -2.88 0
v -4.48 -3.2 0
v -4.8 -3.2 0
v -4.8 -2.88 0
v -4.48 -2.88 0
v -4.8 -3.2 0
v -5.12 -3.2 0
v -5.12 -2.88 0
v -4.8 -2.88 0
v -5.12 -3.2 0
v -5.44 -3.2 0
v -5.44 -2.88 0
v -5.12 -2.88 0
v -3.2 -3.52 0
v -3.52 -3.52 0
v -3.52 -3.2 0
v -3.2 -3.2 0
v -3.52 -3.52 0
v -3.84 -3.52 0
v -3.84 -3.2 0
v -3.52 -3.2 0
v -3.84 -3.52 0
v -4.16 -3.52 0
v -4.16 -3.2 0
v -3.84 -3.2 0
v -4.16 -3.52 0
v -4.48 -3.52 0
v -4.48 -3.2 0
v -4.16 -3.2 0
v -4.48 -3.52 0
v -4.8 -3.52 0
v -4.8 -3.2 0
v -4.48 -3.2 0
v -4.8 -3.52 0
v -5.12 -3.52 0
v -5.12 -3.2 0
v -4.8 -3.2 0
v -5.12 -3.52 0
v -5.44 -3.52 0
v -5.44 -3.2 0
v -5.12 -3.2 0
v -3.2 -3.84 0
v -3.52 -3.84 0
v -3.52 -3.52 0
v -3.2 -3.52 0
v -3.52 -3.84 0
v -3.84 -3.84 0
v -3.84 -3.52 0
v -3.52 -3.52 0
v -3.84 -3.84 0
v -4.16 -3.84 0
v -4.16 -3.52 0
v -3.84 -3.52 0
v -4.16 -3.84 0
v -4.48 -3.84 0
v -4.48 -3.52 0
v -4.16 -3.52 0
v -4.48 -3.84 0
v -4.8 -3.84 0
v -4.8 -3.52 0
v -4.48 -3.52 0
v -4.8 -3.84 0
v -5.12 -3.84 0
v -5.12 -3.52 0
v -4.8 -3.52 0
v -5.12 -3.84 0
v -5.44 -3.84 0
v -5.44 -3.52 0
v -5.12 -3.52 0
v -3.2 -4.16 0
v -3.52 -4.16 0
v -3.52 -3.84 0
v -3.2 -3.84 0
v -3.52 -4.16 0
v -3.84 -4.16 0
v -3.84 -3.84 0
v -3.52 -3.84 0
v -3.84 -4.16 0
v -4.16 -4.16 0
v -4.16 -3.84 0
v -3.84 -3.84 0
v -4.16 -4.16 0
v -4.48 -4.16 0
v -4.48 -3.84 0
v -4.16 -3.84 0
v -4.48 -4.16 0
v -4.8 -4.16 0
v -4.8 -3.84 0
v -4.48 -3.84 0
v -4.8 -4.16 0
v -5.12 -4.16 0
v -5.12 -3.84 0
v -4.8 -3.84 0
v -5.12 -4.16 0
v -5.44 -4.16 0
v -5.44 -3.84 0
v -5.12 -3.84 0

# Texture cooridinates (Count = 31)
vt 0.5333334 0.8
vt 0.6 0.8
vt 0.6 0.8666667
vt 0.5333334 0.8666667
vt 0.2666667 0.6
vt 0.3333333 0.6
vt 0.3333333 0.6666666
vt 0.2666667 0.6666666
vt 0.6 0.6666666
vt 0.6666667 0.6666666
vt 0.6666667 0.7333333
vt 0.6 0.7333333
vt 0.5333334 0.7333333
vt 0.2666667 0.5333333
vt 0.3333333 0.5333333
vt 0.6 0.6
vt 0.6666667 0.6
vt 0.3333333 0.7333333
vt 0.2666667 0.7333333
vt 0.8666667 0.6666666
vt 0.9333333 0.6666666
vt 0.9333333 0.7333333
vt 0.8666667 0.7333333
vt 0.7333333 0.6666666
vt 0.8 0.6666666
vt 0.8 0.7333333
vt 0.7333333 0.7333333
vt 0.8666667 0.6
vt 0.9333333 0.6
vt 0.7333333 0.6
vt 0.8 0.6

# Normal
vn 0 0 -1

# Mesh description
g Test-Room_mesh_0001

# Faces
f 1/1/1 2/2/1 3/3/1 4/4/1
f 5/5/1 6/6/1 7/7/1 8/8/1
f 9/5/1 10/6/1 11/7/1 12/8/1
f 13/5/1 14/6/1 15/7/1 16/8/1
f 17/5/1 18/6/1 19/7/1 20/8/1
f 21/5/1 22/6/1 23/7/1 24/8/1
f 25/5/1 26/6/1 27/7/1 28/8/1
f 29/5/1 30/6/1 31/7/1 32/8/1
f 33/5/1 34/6/1 35/7/1 36/8/1
f 37/9/1 38/10/1 39/11/1 40/12/1
f 41/13/1 42/12/1 43/2/1 44/1/1
f 45/14/1 46/15/1 47/6/1 48/5/1
f 49/14/1 50/15/1 51/6/1 52/5/1
f 53/14/1 54/15/1 55/6/1 56/5/1
f 57/14/1 58/15/1 59/6/1 60/5/1
f 61/14/1 62/15/1 63/6/1 64/5/1
f 65/14/1 66/15/1 67/6/1 68/5/1
f 69/14/1 70/15/1 71/6/1 72/5/1
f 73/14/1 74/15/1 75/6/1 76/5/1
f 77/16/1 78/17/1 79/10/1 80/9/1
f 81/8/1 82/7/1 83/18/1 84/19/1
f 85/8/1 86/7/1 87/18/1 88/19/1
f 89/8/1 90/7/1 91/18/1 92/19/1
f 93/8/1 94/7/1 95/18/1 96/19/1
f 97/8/1 98/7/1 99/18/1 100/19/1
f 101/8/1 102/7/1 103/18/1 104/19/1
f 105/8/1 106/7/1 107/18/1 108/19/1
f 109/8/1 110/7/1 111/18/1 112/19/1
f 113/8/1 114/7/1 115/18/1 116/19/1
f 117/8/1 118/7/1 119/18/1 120/19/1
f 121/8/1 122/7/1 123/18/1 124/19/1
f 125/8/1 126/7/1 127/18/1 128/19/1
f 129/8/1 130/7/1 131/18/1 132/19/1
f 133/8/1 134/7/1 135/18/1 136/19/1
f 137/8/1 138/7/1 139/18/1 140/19/1
f 141/8/1 142/7/1 143/18/1 144/19/1
f 145/8/1 146/7/1 147/18/1 148/19/1
f 149/8/1 150/7/1 151/18/1 152/19/1
f 153/8/1 154/7/1 155/18/1 156/19/1
f 157/8/1 158/7/1 159/18/1 160/19/1
f 161/1/1 162/2/1 163/3/1 164/4/1
f 165/5/1 166/6/1 167/7/1 168/8/1
f 169/9/1 170/10/1 171/11/1 172/12/1
f 173/20/1 174/21/1 175/22/1 176/23/1
f 177/24/1 178/25/1 179/26/1 180/27/1
f 181/24/1 182/25/1 183/26/1 184/27/1
f 185/24/1 186/25/1 187/26/1 188/27/1
f 189/24/1 190/25/1 191/26/1 192/27/1
f 193/25/1 194/20/1 195/23/1 196/26/1
f 197/8/1 198/7/1 199/18/1 200/19/1
f 201/8/1 202/7/1 203/18/1 204/19/1
f 205/8/1 206/7/1 207/18/1 208/19/1
f 209/8/1 210/7/1 211/18/1 212/19/1
f 213/13/1 214/12/1 215/2/1 216/1/1
f 217/14/1 218/15/1 219/6/1 220/5/1
f 221/16/1 222/17/1 223/10/1 224/9/1
f 225/28/1 226/29/1 227/21/1 228/20/1
f 229/30/1 230/31/1 231/25/1 232/24/1
f 233/30/1 234/31/1 235/25/1 236/24/1
f 237/30/1 238/31/1 239/25/1 240/24/1
f 241/30/1 242/31/1 243/25/1 244/24/1
f 245/31/1 246/28/1 247/20/1 248/25/1
f 249/8/1 250/7/1 251/18/1 252/19/1
f 253/8/1 254/7/1 255/18/1 256/19/1
f 257/8/1 258/7/1 259/18/1 260/19/1
f 261/8/1 262/7/1 263/18/1 264/19/1
f 265/8/1 266/7/1 267/18/1 268/19/1
f 269/8/1 270/7/1 271/18/1 272/19/1
f 273/8/1 274/7/1 275/18/1 276/19/1
f 277/8/1 278/7/1 279/18/1 280/19/1
f 281/8/1 282/7/1 283/18/1 284/19/1
f 285/8/1 286/7/1 287/18/1 288/19/1
f 289/8/1 290/7/1 291/18/1 292/19/1
f 293/8/1 294/7/1 295/18/1 296/19/1
f 297/8/1 298/7/1 299/18/1 300/19/1
f 301/8/1 302/7/1 303/18/1 304/19/1
f 305/8/1 306/7/1 307/18/1 308/19/1
f 309/8/1 310/7/1 311/18/1 312/19/1
f 313/8/1 314/7/1 315/18/1 316/19/1
f 317/8/1 318/7/1 319/18/1 320/19/1
f 321/8/1 322/7/1 323/18/1 324/19/1
f 325/8/1 326/7/1 327/18/1 328/19/1
f 329/8/1 330/7/1 331/18/1 332/19/1
f 333/8/1 334/7/1 335/18/1 336/19/1
f 337/8/1 338/7/1 339/18/1 340/19/1
f 341/8/1 342/7/1 343/18/1 344/19/1
f 345/8/1 346/7/1 347/18/1 348/19/1
f 349/8/1 350/7/1 351/18/1 352/19/1
f 353/8/1 354/7/1 355/18/1 356/19/1
f 357/8/1 358/7/1 359/18/1 360/19/1
f 361/20/1 362/21/1 363/22/1 364/23/1
f 365/24/1 366/25/1 367/26/1 368/27/1
f 369/24/1 370/25/1 371/26/1 372/27/1
f 373/24/1 374/25/1 375/26/1 376/27/1
f 377/24/1 378/25/1 379/26/1 380/27/1
f 381/24/1 382/25/1 383/26/1 384/27/1
f 385/25/1 386/20/1 387/23/1 388/26/1
f 389/28/1 390/29/1 391/21/1 392/20/1
f 393/30/1 394/31/1 395/25/1 396/24/1
f 397/30/1 398/31/1 399/25/1 400/24/1
f 401/30/1 402/31/1 403/25/1 404/24/1
f 405/30/1 406/31/1 407/25/1 408/24/1
f 409/30/1 410/31/1 411/25/1 412/24/1
f 413/31/1 414/28/1 415/20/1 416/25/1

