# Tiled2Unity generated file. Do not modify by hand.
# Wavefront file for 'Test-Room_mesh_0003.obj'

# Vertices (Count = 108)
v -2.24 -0.96 0
v -2.56 -0.96 0
v -2.56 -0.64 0
v -2.24 -0.64 0
v -2.56 -0.96 0
v -2.88 -0.96 0
v -2.88 -0.64 0
v -2.56 -0.64 0
v -3.52 -0.96 0
v -3.84 -0.96 0
v -3.84 -0.64 0
v -3.52 -0.64 0
v -1.28 -1.28 0
v -1.6 -1.28 0
v -1.6 -0.96 0
v -1.28 -0.96 0
v -1.6 -1.28 0
v -1.92 -1.28 0
v -1.92 -0.96 0
v -1.6 -0.96 0
v -1.92 -1.28 0
v -2.24 -1.28 0
v -2.24 -0.96 0
v -1.92 -0.96 0
v -2.24 -1.28 0
v -2.56 -1.28 0
v -2.56 -0.96 0
v -2.24 -0.96 0
v -2.56 -1.28 0
v -2.88 -1.28 0
v -2.88 -0.96 0
v -2.56 -0.96 0
v -3.52 -1.28 0
v -3.84 -1.28 0
v -3.84 -0.96 0
v -3.52 -0.96 0
v -1.28 -1.6 0
v -1.6 -1.6 0
v -1.6 -1.28 0
v -1.28 -1.28 0
v -1.6 -1.6 0
v -1.92 -1.6 0
v -1.92 -1.28 0
v -1.6 -1.28 0
v -1.92 -1.6 0
v -2.24 -1.6 0
v -2.24 -1.28 0
v -1.92 -1.28 0
v -3.52 -1.6 0
v -3.84 -1.6 0
v -3.84 -1.28 0
v -3.52 -1.28 0
v -4.16 -1.6 0
v -4.48 -1.6 0
v -4.48 -1.28 0
v -4.16 -1.28 0
v -4.16 -1.92 0
v -4.48 -1.92 0
v -4.48 -1.6 0
v -4.16 -1.6 0
v -4.8 -1.92 0
v -5.12 -1.92 0
v -5.12 -1.6 0
v -4.8 -1.6 0
v -5.12 -1.92 0
v -5.44 -1.92 0
v -5.44 -1.6 0
v -5.12 -1.6 0
v -4.16 -2.24 0
v -4.48 -2.24 0
v -4.48 -1.92 0
v -4.16 -1.92 0
v -4.8 -2.24 0
v -5.12 -2.24 0
v -5.12 -1.92 0
v -4.8 -1.92 0
v -5.12 -2.24 0
v -5.44 -2.24 0
v -5.44 -1.92 0
v -5.12 -1.92 0
v -5.12 -2.56 0
v -5.44 -2.56 0
v -5.44 -2.24 0
v -5.12 -2.24 0
v -3.52 -2.88 0
v -3.84 -2.88 0
v -3.84 -2.56 0
v -3.52 -2.56 0
v -3.84 -2.88 0
v -4.16 -2.88 0
v -4.16 -2.56 0
v -3.84 -2.56 0
v -4.16 -2.88 0
v -4.48 -2.88 0
v -4.48 -2.56 0
v -4.16 -2.56 0
v -3.52 -3.2 0
v -3.84 -3.2 0
v -3.84 -2.88 0
v -3.52 -2.88 0
v -3.84 -3.2 0
v -4.16 -3.2 0
v -4.16 -2.88 0
v -3.84 -2.88 0
v -4.16 -3.2 0
v -4.48 -3.2 0
v -4.48 -2.88 0
v -4.16 -2.88 0

# Texture cooridinates (Count = 46)
vt 0.4 0.2666667
vt 0.4666667 0.2666667
vt 0.4666667 0.3333333
vt 0.4 0.3333333
vt 0.5333334 0.2666667
vt 0.5333334 0.3333333
vt 0.2 0.6666666
vt 0.2666667 0.6666666
vt 0.2666667 0.7333333
vt 0.2 0.7333333
vt 0 0.6
vt 0.06666667 0.6
vt 0.06666667 0.6666666
vt 0 0.6666666
vt 0.1333333 0.6
vt 0.1333333 0.6666666
vt 0.2 0.6
vt 0.4 0.2
vt 0.4666667 0.2
vt 0.5333334 0.2
vt 0.06666667 0.8
vt 0.1333333 0.8
vt 0.1333333 0.8666667
vt 0.06666667 0.8666667
vt 0 0.5333333
vt 0.06666667 0.5333333
vt 0.1333333 0.5333333
vt 0.2 0.5333333
vt 0.06666667 0.7333333
vt 0.1333333 0.7333333
vt 0.8666667 0.2666667
vt 0.9333333 0.2666667
vt 0.9333333 0.3333333
vt 0.8666667 0.3333333
vt 0.8666667 0.2
vt 0.9333333 0.2
vt 0.4 0.1333333
vt 0.4666667 0.1333333
vt 0.8666667 0.1333333
vt 0.9333333 0.1333333
vt 0.4 0.06666666
vt 0.4666667 0.06666666
vt 0.2 0.8
vt 0.2666667 0.8
vt 0.2666667 0.8666667
vt 0.2 0.8666667

# Normal
vn 0 0 -1

# Mesh description
g Test-Room_mesh_0003

# Faces
f 1/1/1 2/2/1 3/3/1 4/4/1
f 5/2/1 6/5/1 7/6/1 8/3/1
f 9/7/1 10/8/1 11/9/1 12/10/1
f 13/11/1 14/12/1 15/13/1 16/14/1
f 17/12/1 18/15/1 19/16/1 20/13/1
f 21/15/1 22/17/1 23/7/1 24/16/1
f 25/18/1 26/19/1 27/2/1 28/1/1
f 29/19/1 30/20/1 31/5/1 32/2/1
f 33/21/1 34/22/1 35/23/1 36/24/1
f 37/25/1 38/26/1 39/12/1 40/11/1
f 41/26/1 42/27/1 43/15/1 44/12/1
f 45/27/1 46/28/1 47/17/1 48/15/1
f 49/29/1 50/30/1 51/22/1 52/21/1
f 53/31/1 54/32/1 55/33/1 56/34/1
f 57/35/1 58/36/1 59/32/1 60/31/1
f 61/37/1 62/38/1 63/19/1 64/18/1
f 65/16/1 66/7/1 67/10/1 68/30/1
f 69/39/1 70/40/1 71/36/1 72/35/1
f 73/41/1 74/42/1 75/38/1 76/37/1
f 77/43/1 78/44/1 79/45/1 80/46/1
f 81/10/1 82/9/1 83/44/1 84/43/1
f 85/11/1 86/12/1 87/13/1 88/14/1
f 89/12/1 90/15/1 91/16/1 92/13/1
f 93/15/1 94/17/1 95/7/1 96/16/1
f 97/25/1 98/26/1 99/12/1 100/11/1
f 101/26/1 102/27/1 103/15/1 104/12/1
f 105/27/1 106/28/1 107/17/1 108/15/1

