# Tiled2Unity generated file. Do not modify by hand.
# Wavefront file for 'Jenns_Apartment2-(1)_mesh_0006.obj'

# Vertices (Count = 316)
v 0 -0.32 0
v -0.32 -0.32 0
v -0.32 0 0
v 0 0 0
v -0.32 -0.32 0
v -0.64 -0.32 0
v -0.64 0 0
v -0.32 0 0
v -0.64 -0.32 0
v -0.96 -0.32 0
v -0.96 0 0
v -0.64 0 0
v -0.96 -0.32 0
v -1.28 -0.32 0
v -1.28 0 0
v -0.96 0 0
v -1.28 -0.32 0
v -1.6 -0.32 0
v -1.6 0 0
v -1.28 0 0
v -1.6 -0.32 0
v -1.92 -0.32 0
v -1.92 0 0
v -1.6 0 0
v -2.24 -0.32 0
v -2.56 -0.32 0
v -2.56 0 0
v -2.24 0 0
v -2.56 -0.32 0
v -2.88 -0.32 0
v -2.88 0 0
v -2.56 0 0
v -2.88 -0.32 0
v -3.2 -0.32 0
v -3.2 0 0
v -2.88 0 0
v -3.2 -0.32 0
v -3.52 -0.32 0
v -3.52 0 0
v -3.2 0 0
v -3.52 -0.32 0
v -3.84 -0.32 0
v -3.84 0 0
v -3.52 0 0
v 0 -0.64 0
v -0.32 -0.64 0
v -0.32 -0.32 0
v 0 -0.32 0
v -1.6 -0.64 0
v -1.92 -0.64 0
v -1.92 -0.32 0
v -1.6 -0.32 0
v -1.92 -0.64 0
v -2.24 -0.64 0
v -2.24 -0.32 0
v -1.92 -0.32 0
v -2.24 -0.64 0
v -2.56 -0.64 0
v -2.56 -0.32 0
v -2.24 -0.32 0
v -3.52 -0.64 0
v -3.84 -0.64 0
v -3.84 -0.32 0
v -3.52 -0.32 0
v 0 -0.96 0
v -0.32 -0.96 0
v -0.32 -0.64 0
v 0 -0.64 0
v -1.6 -0.96 0
v -1.92 -0.96 0
v -1.92 -0.64 0
v -1.6 -0.64 0
v -1.92 -0.96 0
v -2.24 -0.96 0
v -2.24 -0.64 0
v -1.92 -0.64 0
v -2.24 -0.96 0
v -2.56 -0.96 0
v -2.56 -0.64 0
v -2.24 -0.64 0
v -3.52 -0.96 0
v -3.84 -0.96 0
v -3.84 -0.64 0
v -3.52 -0.64 0
v 0 -1.28 0
v -0.32 -1.28 0
v -0.32 -0.96 0
v 0 -0.96 0
v -3.52 -1.28 0
v -3.84 -1.28 0
v -3.84 -0.96 0
v -3.52 -0.96 0
v 0 -1.6 0
v -0.32 -1.6 0
v -0.32 -1.28 0
v 0 -1.28 0
v -3.52 -1.6 0
v -3.84 -1.6 0
v -3.84 -1.28 0
v -3.52 -1.28 0
v 0 -1.92 0
v -0.32 -1.92 0
v -0.32 -1.6 0
v 0 -1.6 0
v -1.6 -1.92 0
v -1.92 -1.92 0
v -1.92 -1.6 0
v -1.6 -1.6 0
v -1.92 -1.92 0
v -2.24 -1.92 0
v -2.24 -1.6 0
v -1.92 -1.6 0
v -2.24 -1.92 0
v -2.56 -1.92 0
v -2.56 -1.6 0
v -2.24 -1.6 0
v -3.52 -1.92 0
v -3.84 -1.92 0
v -3.84 -1.6 0
v -3.52 -1.6 0
v 0 -2.24 0
v -0.32 -2.24 0
v -0.32 -1.92 0
v 0 -1.92 0
v -0.32 -2.24 0
v -0.64 -2.24 0
v -0.64 -1.92 0
v -0.32 -1.92 0
v -0.64 -2.24 0
v -0.96 -2.24 0
v -0.96 -1.92 0
v -0.64 -1.92 0
v -1.28 -2.24 0
v -1.6 -2.24 0
v -1.6 -1.92 0
v -1.28 -1.92 0
v -1.6 -2.24 0
v -1.92 -2.24 0
v -1.92 -1.92 0
v -1.6 -1.92 0
v -2.24 -2.24 0
v -2.56 -2.24 0
v -2.56 -1.92 0
v -2.24 -1.92 0
v -2.56 -2.24 0
v -2.88 -2.24 0
v -2.88 -1.92 0
v -2.56 -1.92 0
v -2.88 -2.24 0
v -3.2 -2.24 0
v -3.2 -1.92 0
v -2.88 -1.92 0
v -3.2 -2.24 0
v -3.52 -2.24 0
v -3.52 -1.92 0
v -3.2 -1.92 0
v -3.52 -2.24 0
v -3.84 -2.24 0
v -3.84 -1.92 0
v -3.52 -1.92 0
v 0 -2.56 0
v -0.32 -2.56 0
v -0.32 -2.24 0
v 0 -2.24 0
v -0.32 -2.56 0
v -0.64 -2.56 0
v -0.64 -2.24 0
v -0.32 -2.24 0
v -0.64 -2.56 0
v -0.96 -2.56 0
v -0.96 -2.24 0
v -0.64 -2.24 0
v -1.28 -2.56 0
v -1.6 -2.56 0
v -1.6 -2.24 0
v -1.28 -2.24 0
v -1.6 -2.56 0
v -1.92 -2.56 0
v -1.92 -2.24 0
v -1.6 -2.24 0
v -2.24 -2.56 0
v -2.56 -2.56 0
v -2.56 -2.24 0
v -2.24 -2.24 0
v -2.56 -2.56 0
v -2.88 -2.56 0
v -2.88 -2.24 0
v -2.56 -2.24 0
v -2.88 -2.56 0
v -3.2 -2.56 0
v -3.2 -2.24 0
v -2.88 -2.24 0
v -3.2 -2.56 0
v -3.52 -2.56 0
v -3.52 -2.24 0
v -3.2 -2.24 0
v -3.52 -2.56 0
v -3.84 -2.56 0
v -3.84 -2.24 0
v -3.52 -2.24 0
v 0 -2.88 0
v -0.32 -2.88 0
v -0.32 -2.56 0
v 0 -2.56 0
v -1.6 -2.88 0
v -1.92 -2.88 0
v -1.92 -2.56 0
v -1.6 -2.56 0
v -1.92 -2.88 0
v -2.24 -2.88 0
v -2.24 -2.56 0
v -1.92 -2.56 0
v -2.24 -2.88 0
v -2.56 -2.88 0
v -2.56 -2.56 0
v -2.24 -2.56 0
v -3.52 -2.88 0
v -3.84 -2.88 0
v -3.84 -2.56 0
v -3.52 -2.56 0
v 0 -3.2 0
v -0.32 -3.2 0
v -0.32 -2.88 0
v 0 -2.88 0
v -1.6 -3.2 0
v -1.92 -3.2 0
v -1.92 -2.88 0
v -1.6 -2.88 0
v -1.92 -3.2 0
v -2.24 -3.2 0
v -2.24 -2.88 0
v -1.92 -2.88 0
v -2.24 -3.2 0
v -2.56 -3.2 0
v -2.56 -2.88 0
v -2.24 -2.88 0
v -3.52 -3.2 0
v -3.84 -3.2 0
v -3.84 -2.88 0
v -3.52 -2.88 0
v 0 -3.52 0
v -0.32 -3.52 0
v -0.32 -3.2 0
v 0 -3.2 0
v -3.52 -3.52 0
v -3.84 -3.52 0
v -3.84 -3.2 0
v -3.52 -3.2 0
v -1.6 -3.84 0
v -1.92 -3.84 0
v -1.92 -3.52 0
v -1.6 -3.52 0
v -1.92 -3.84 0
v -2.24 -3.84 0
v -2.24 -3.52 0
v -1.92 -3.52 0
v -2.24 -3.84 0
v -2.56 -3.84 0
v -2.56 -3.52 0
v -2.24 -3.52 0
v -3.52 -3.84 0
v -3.84 -3.84 0
v -3.84 -3.52 0
v -3.52 -3.52 0
v 0 -4.16 0
v -0.32 -4.16 0
v -0.32 -3.84 0
v 0 -3.84 0
v -3.52 -4.16 0
v -3.84 -4.16 0
v -3.84 -3.84 0
v -3.52 -3.84 0
v 0 -4.48 0
v -0.32 -4.48 0
v -0.32 -4.16 0
v 0 -4.16 0
v -0.32 -4.48 0
v -0.64 -4.48 0
v -0.64 -4.16 0
v -0.32 -4.16 0
v -0.64 -4.48 0
v -0.96 -4.48 0
v -0.96 -4.16 0
v -0.64 -4.16 0
v -1.28 -4.48 0
v -1.6 -4.48 0
v -1.6 -4.16 0
v -1.28 -4.16 0
v -1.6 -4.48 0
v -1.92 -4.48 0
v -1.92 -4.16 0
v -1.6 -4.16 0
v -1.92 -4.48 0
v -2.24 -4.48 0
v -2.24 -4.16 0
v -1.92 -4.16 0
v -2.24 -4.48 0
v -2.56 -4.48 0
v -2.56 -4.16 0
v -2.24 -4.16 0
v -2.56 -4.48 0
v -2.88 -4.48 0
v -2.88 -4.16 0
v -2.56 -4.16 0
v -2.88 -4.48 0
v -3.2 -4.48 0
v -3.2 -4.16 0
v -2.88 -4.16 0
v -3.2 -4.48 0
v -3.52 -4.48 0
v -3.52 -4.16 0
v -3.2 -4.16 0
v -3.52 -4.48 0
v -3.84 -4.48 0
v -3.84 -4.16 0
v -3.52 -4.16 0

# Texture cooridinates (Count = 104)
vt 0.2667888 0.4667887
vt 0.3332113 0.4667887
vt 0.3332113 0.5332112
vt 0.2667888 0.5332112
vt 0.1334554 0.400122
vt 0.1998779 0.400122
vt 0.1998779 0.4665446
vt 0.1334554 0.4665446
vt 0.3334554 0.4667887
vt 0.3998779 0.4667887
vt 0.3998779 0.5332112
vt 0.3334554 0.5332112
vt 0.4667887 0.4667887
vt 0.5332113 0.4667887
vt 0.5332113 0.5332112
vt 0.4667887 0.5332112
vt 0.2667888 0.400122
vt 0.3332113 0.400122
vt 0.3332113 0.4665446
vt 0.2667888 0.4665446
vt 0.2001221 0.2667887
vt 0.2665446 0.2667887
vt 0.2665446 0.3332112
vt 0.2001221 0.3332112
vt 0.2667888 0.2667887
vt 0.3332113 0.2667887
vt 0.3332113 0.3332112
vt 0.2667888 0.3332112
vt 0.3334554 0.2667887
vt 0.3998779 0.2667887
vt 0.3998779 0.3332112
vt 0.3334554 0.3332112
vt 0.3334554 0.400122
vt 0.3998779 0.400122
vt 0.3998779 0.4665446
vt 0.3334554 0.4665446
vt 0.2001221 0.2001221
vt 0.2665446 0.2001221
vt 0.2665446 0.2665446
vt 0.2001221 0.2665446
vt 0.2667888 0.2001221
vt 0.3332113 0.2001221
vt 0.3332113 0.2665446
vt 0.2667888 0.2665446
vt 0.3334554 0.2001221
vt 0.3998779 0.2001221
vt 0.3998779 0.2665446
vt 0.3334554 0.2665446
vt 0.4001221 0.4667887
vt 0.4665446 0.4667887
vt 0.4665446 0.5332112
vt 0.4001221 0.5332112
vt 0.5334554 0.4667887
vt 0.599878 0.4667887
vt 0.599878 0.5332112
vt 0.5334554 0.5332112
vt 0.6001221 0.4667887
vt 0.6665446 0.4667887
vt 0.6665446 0.5332112
vt 0.6001221 0.5332112
vt 0.2667888 0.3334554
vt 0.3332113 0.3334554
vt 0.3332113 0.3998779
vt 0.2667888 0.3998779
vt 0.5334554 0.3334554
vt 0.599878 0.3334554
vt 0.599878 0.3998779
vt 0.5334554 0.3998779
vt 0.1334554 0.4667887
vt 0.1998779 0.4667887
vt 0.1998779 0.5332112
vt 0.1334554 0.5332112
vt 0.3334554 0.3334554
vt 0.3998779 0.3334554
vt 0.3998779 0.3998779
vt 0.3334554 0.3998779
vt 0.2001221 0.4667887
vt 0.2665446 0.4667887
vt 0.2665446 0.5332112
vt 0.2001221 0.5332112
vt 0.6667888 0.2667887
vt 0.7332113 0.2667887
vt 0.7332113 0.3332112
vt 0.6667888 0.3332112
vt 0.7334554 0.2667887
vt 0.7998779 0.2667887
vt 0.7998779 0.3332112
vt 0.7334554 0.3332112
vt 0.8001221 0.2667887
vt 0.8665446 0.2667887
vt 0.8665446 0.3332112
vt 0.8001221 0.3332112
vt 0.6667888 0.1334554
vt 0.7332113 0.1334554
vt 0.7332113 0.1998779
vt 0.6667888 0.1998779
vt 0.7334554 0.1334554
vt 0.7998779 0.1334554
vt 0.7998779 0.1998779
vt 0.7334554 0.1998779
vt 0.8001221 0.1334554
vt 0.8665446 0.1334554
vt 0.8665446 0.1998779
vt 0.8001221 0.1998779

# Normal
vn 0 0 -1

# Mesh description
g Jenns_Apartment2-(1)_mesh_0006

# Faces
f 1/1/1 2/2/1 3/3/1 4/4/1
f 5/5/1 6/6/1 7/7/1 8/8/1
f 9/5/1 10/6/1 11/7/1 12/8/1
f 13/5/1 14/6/1 15/7/1 16/8/1
f 17/5/1 18/6/1 19/7/1 20/8/1
f 21/9/1 22/10/1 23/11/1 24/12/1
f 25/1/1 26/2/1 27/3/1 28/4/1
f 29/13/1 30/14/1 31/15/1 32/16/1
f 33/13/1 34/14/1 35/15/1 36/16/1
f 37/13/1 38/14/1 39/15/1 40/16/1
f 41/9/1 42/10/1 43/11/1 44/12/1
f 45/17/1 46/18/1 47/19/1 48/20/1
f 49/21/1 50/22/1 51/23/1 52/24/1
f 53/25/1 54/26/1 55/27/1 56/28/1
f 57/29/1 58/30/1 59/31/1 60/32/1
f 61/33/1 62/34/1 63/35/1 64/36/1
f 65/17/1 66/18/1 67/19/1 68/20/1
f 69/37/1 70/38/1 71/39/1 72/40/1
f 73/41/1 74/42/1 75/43/1 76/44/1
f 77/45/1 78/46/1 79/47/1 80/48/1
f 81/33/1 82/34/1 83/35/1 84/36/1
f 85/17/1 86/18/1 87/19/1 88/20/1
f 89/33/1 90/34/1 91/35/1 92/36/1
f 93/17/1 94/18/1 95/19/1 96/20/1
f 97/33/1 98/34/1 99/35/1 100/36/1
f 101/17/1 102/18/1 103/19/1 104/20/1
f 105/49/1 106/50/1 107/51/1 108/52/1
f 109/53/1 110/54/1 111/55/1 112/56/1
f 113/57/1 114/58/1 115/59/1 116/60/1
f 117/33/1 118/34/1 119/35/1 120/36/1
f 121/61/1 122/62/1 123/63/1 124/64/1
f 125/13/1 126/14/1 127/15/1 128/16/1
f 129/9/1 130/10/1 131/11/1 132/12/1
f 133/1/1 134/2/1 135/3/1 136/4/1
f 137/65/1 138/66/1 139/67/1 140/68/1
f 141/61/1 142/62/1 143/63/1 144/64/1
f 145/13/1 146/14/1 147/15/1 148/16/1
f 149/13/1 150/14/1 151/15/1 152/16/1
f 153/13/1 154/14/1 155/15/1 156/16/1
f 157/65/1 158/66/1 159/67/1 160/68/1
f 161/69/1 162/70/1 163/71/1 164/72/1
f 165/13/1 166/14/1 167/15/1 168/16/1
f 169/73/1 170/74/1 171/75/1 172/76/1
f 173/61/1 174/62/1 175/63/1 176/64/1
f 177/77/1 178/78/1 179/79/1 180/80/1
f 181/69/1 182/70/1 183/71/1 184/72/1
f 185/13/1 186/14/1 187/15/1 188/16/1
f 189/13/1 190/14/1 191/15/1 192/16/1
f 193/13/1 194/14/1 195/15/1 196/16/1
f 197/77/1 198/78/1 199/79/1 200/80/1
f 201/17/1 202/18/1 203/19/1 204/20/1
f 205/21/1 206/22/1 207/23/1 208/24/1
f 209/25/1 210/26/1 211/27/1 212/28/1
f 213/29/1 214/30/1 215/31/1 216/32/1
f 217/21/1 218/22/1 219/23/1 220/24/1
f 221/17/1 222/18/1 223/19/1 224/20/1
f 225/37/1 226/38/1 227/39/1 228/40/1
f 229/41/1 230/42/1 231/43/1 232/44/1
f 233/45/1 234/46/1 235/47/1 236/48/1
f 237/33/1 238/34/1 239/35/1 240/36/1
f 241/17/1 242/18/1 243/19/1 244/20/1
f 245/33/1 246/34/1 247/35/1 248/36/1
f 249/81/1 250/82/1 251/83/1 252/84/1
f 253/85/1 254/86/1 255/87/1 256/88/1
f 257/89/1 258/90/1 259/91/1 260/92/1
f 261/33/1 262/34/1 263/35/1 264/36/1
f 265/17/1 266/18/1 267/19/1 268/20/1
f 269/33/1 270/34/1 271/35/1 272/36/1
f 273/61/1 274/62/1 275/63/1 276/64/1
f 277/13/1 278/14/1 279/15/1 280/16/1
f 281/13/1 282/14/1 283/15/1 284/16/1
f 285/13/1 286/14/1 287/15/1 288/16/1
f 289/93/1 290/94/1 291/95/1 292/96/1
f 293/97/1 294/98/1 295/99/1 296/100/1
f 297/101/1 298/102/1 299/103/1 300/104/1
f 301/13/1 302/14/1 303/15/1 304/16/1
f 305/53/1 306/54/1 307/55/1 308/56/1
f 309/53/1 310/54/1 311/55/1 312/56/1
f 313/73/1 314/74/1 315/75/1 316/76/1

