# Tiled2Unity generated file. Do not modify by hand.
# Wavefront file for 'Jenns_Apartment2-(1)_mesh_0009.obj'

# Vertices (Count = 36)
v 0 -1.92 0
v -0.32 -1.92 0
v -0.32 -1.6 0
v 0 -1.6 0
v -0.32 -1.92 0
v -0.64 -1.92 0
v -0.64 -1.6 0
v -0.32 -1.6 0
v -0.64 -1.92 0
v -0.96 -1.92 0
v -0.96 -1.6 0
v -0.64 -1.6 0
v -0.32 -2.88 0
v -0.64 -2.88 0
v -0.64 -2.56 0
v -0.32 -2.56 0
v -2.88 -2.88 0
v -3.2 -2.88 0
v -3.2 -2.56 0
v -2.88 -2.56 0
v 0 -3.52 0
v -0.32 -3.52 0
v -0.32 -3.2 0
v 0 -3.2 0
v -1.6 -4.16 0
v -1.92 -4.16 0
v -1.92 -3.84 0
v -1.6 -3.84 0
v -1.92 -4.16 0
v -2.24 -4.16 0
v -2.24 -3.84 0
v -1.92 -3.84 0
v -2.24 -4.16 0
v -2.56 -4.16 0
v -2.56 -3.84 0
v -2.24 -3.84 0

# Texture cooridinates (Count = 36)
vt 0.6667888 0.06678873
vt 0.7332113 0.06678873
vt 0.7332113 0.1332113
vt 0.6667888 0.1332113
vt 0.7334554 0.06678873
vt 0.7998779 0.06678873
vt 0.7998779 0.1332113
vt 0.7334554 0.1332113
vt 0.8001221 0.06678873
vt 0.8665446 0.06678873
vt 0.8665446 0.1332113
vt 0.8001221 0.1332113
vt 0.1334554 0.7334554
vt 0.1998779 0.7334554
vt 0.1998779 0.7998779
vt 0.1334554 0.7998779
vt 0.6667888 0.9334554
vt 0.7332113 0.9334554
vt 0.7332113 0.9998779
vt 0.6667888 0.9998779
vt 0.2667888 0.400122
vt 0.3332113 0.400122
vt 0.3332113 0.4665446
vt 0.2667888 0.4665446
vt 0.6667888 0.2001221
vt 0.7332113 0.2001221
vt 0.7332113 0.2665446
vt 0.6667888 0.2665446
vt 0.7334554 0.2001221
vt 0.7998779 0.2001221
vt 0.7998779 0.2665446
vt 0.7334554 0.2665446
vt 0.8001221 0.2001221
vt 0.8665446 0.2001221
vt 0.8665446 0.2665446
vt 0.8001221 0.2665446

# Normal
vn 0 0 -1

# Mesh description
g Jenns_Apartment2-(1)_mesh_0009

# Faces
f 1/1/1 2/2/1 3/3/1 4/4/1
f 5/5/1 6/6/1 7/7/1 8/8/1
f 9/9/1 10/10/1 11/11/1 12/12/1
f 13/13/1 14/14/1 15/15/1 16/16/1
f 17/17/1 18/18/1 19/19/1 20/20/1
f 21/21/1 22/22/1 23/23/1 24/24/1
f 25/25/1 26/26/1 27/27/1 28/28/1
f 29/29/1 30/30/1 31/31/1 32/32/1
f 33/33/1 34/34/1 35/35/1 36/36/1

