# Tiled2Unity generated file. Do not modify by hand.
# Wavefront file for 'Jenns_Apartment2-(1)_mesh_0003.obj'

# Vertices (Count = 104)
v -2.56 -0.32 0
v -2.88 -0.32 0
v -2.88 0 0
v -2.56 0 0
v -0.32 -0.64 0
v -0.64 -0.64 0
v -0.64 -0.32 0
v -0.32 -0.32 0
v -1.6 -0.64 0
v -1.92 -0.64 0
v -1.92 -0.32 0
v -1.6 -0.32 0
v -2.56 -0.64 0
v -2.88 -0.64 0
v -2.88 -0.32 0
v -2.56 -0.32 0
v -2.88 -0.64 0
v -3.2 -0.64 0
v -3.2 -0.32 0
v -2.88 -0.32 0
v -1.6 -0.96 0
v -1.92 -0.96 0
v -1.92 -0.64 0
v -1.6 -0.64 0
v -1.92 -0.96 0
v -2.24 -0.96 0
v -2.24 -0.64 0
v -1.92 -0.64 0
v -1.92 -1.28 0
v -2.24 -1.28 0
v -2.24 -0.96 0
v -1.92 -0.96 0
v -1.6 -2.88 0
v -1.92 -2.88 0
v -1.92 -2.56 0
v -1.6 -2.56 0
v -2.24 -2.88 0
v -2.56 -2.88 0
v -2.56 -2.56 0
v -2.24 -2.56 0
v -2.56 -2.88 0
v -2.88 -2.88 0
v -2.88 -2.56 0
v -2.56 -2.56 0
v -2.88 -2.88 0
v -3.2 -2.88 0
v -3.2 -2.56 0
v -2.88 -2.56 0
v -3.2 -2.88 0
v -3.52 -2.88 0
v -3.52 -2.56 0
v -3.2 -2.56 0
v -3.52 -2.88 0
v -3.84 -2.88 0
v -3.84 -2.56 0
v -3.52 -2.56 0
v -2.56 -3.2 0
v -2.88 -3.2 0
v -2.88 -2.88 0
v -2.56 -2.88 0
v -2.88 -3.2 0
v -3.2 -3.2 0
v -3.2 -2.88 0
v -2.88 -2.88 0
v -3.2 -3.2 0
v -3.52 -3.2 0
v -3.52 -2.88 0
v -3.2 -2.88 0
v -3.52 -3.2 0
v -3.84 -3.2 0
v -3.84 -2.88 0
v -3.52 -2.88 0
v -2.88 -3.52 0
v -3.2 -3.52 0
v -3.2 -3.2 0
v -2.88 -3.2 0
v -3.2 -3.52 0
v -3.52 -3.52 0
v -3.52 -3.2 0
v -3.2 -3.2 0
v -3.52 -3.52 0
v -3.84 -3.52 0
v -3.84 -3.2 0
v -3.52 -3.2 0
v -2.88 -3.84 0
v -3.2 -3.84 0
v -3.2 -3.52 0
v -2.88 -3.52 0
v -3.2 -3.84 0
v -3.52 -3.84 0
v -3.52 -3.52 0
v -3.2 -3.52 0
v -3.52 -3.84 0
v -3.84 -3.84 0
v -3.84 -3.52 0
v -3.52 -3.52 0
v -0.32 -4.16 0
v -0.64 -4.16 0
v -0.64 -3.84 0
v -0.32 -3.84 0
v -0.96 -4.8 0
v -1.28 -4.8 0
v -1.28 -4.48 0
v -0.96 -4.48 0

# Texture cooridinates (Count = 92)
vt 0.3334554 0.1334554
vt 0.3998779 0.1334554
vt 0.3998779 0.1998779
vt 0.3334554 0.1998779
vt 0.2667888 0.7334554
vt 0.3332113 0.7334554
vt 0.3332113 0.7998779
vt 0.2667888 0.7998779
vt 0.2001221 0.8001221
vt 0.2665446 0.8001221
vt 0.2665446 0.8665446
vt 0.2001221 0.8665446
vt 0.3334554 0.06678873
vt 0.3998779 0.06678873
vt 0.3998779 0.1332113
vt 0.3334554 0.1332113
vt 0.2001221 0.7334554
vt 0.2665446 0.7334554
vt 0.2665446 0.7998779
vt 0.2001221 0.7998779
vt 0.4001221 0.1334554
vt 0.4665446 0.1334554
vt 0.4665446 0.1998779
vt 0.4001221 0.1998779
vt 0.4001221 0.06678873
vt 0.4665446 0.06678873
vt 0.4665446 0.1332113
vt 0.4001221 0.1332113
vt 0.6667888 0.400122
vt 0.7332113 0.400122
vt 0.7332113 0.4665446
vt 0.6667888 0.4665446
vt 0.7334554 0.400122
vt 0.7998779 0.400122
vt 0.7998779 0.4665446
vt 0.7334554 0.4665446
vt 0.8001221 0.400122
vt 0.8665446 0.400122
vt 0.8665446 0.4665446
vt 0.8001221 0.4665446
vt 0.8667887 0.400122
vt 0.9332113 0.400122
vt 0.9332113 0.4665446
vt 0.8667887 0.4665446
vt 0.6667888 0.3334554
vt 0.7332113 0.3334554
vt 0.7332113 0.3998779
vt 0.6667888 0.3998779
vt 0.7334554 0.3334554
vt 0.7998779 0.3334554
vt 0.7998779 0.3998779
vt 0.7334554 0.3998779
vt 0.8001221 0.3334554
vt 0.8665446 0.3334554
vt 0.8665446 0.3998779
vt 0.8001221 0.3998779
vt 0.8667887 0.3334554
vt 0.9332113 0.3334554
vt 0.9332113 0.3998779
vt 0.8667887 0.3998779
vt 0.0001220703 0.6001221
vt 0.0665446 0.6001221
vt 0.0665446 0.6665446
vt 0.0001220703 0.6665446
vt 0.06678874 0.6001221
vt 0.1332113 0.6001221
vt 0.1332113 0.6665446
vt 0.06678874 0.6665446
vt 0.1334554 0.6001221
vt 0.1998779 0.6001221
vt 0.1998779 0.6665446
vt 0.1334554 0.6665446
vt 0.0001220703 0.5334554
vt 0.0665446 0.5334554
vt 0.0665446 0.599878
vt 0.0001220703 0.599878
vt 0.06678874 0.5334554
vt 0.1332113 0.5334554
vt 0.1332113 0.599878
vt 0.06678874 0.599878
vt 0.1334554 0.5334554
vt 0.1998779 0.5334554
vt 0.1998779 0.599878
vt 0.1334554 0.599878
vt 0.6001221 0.2001221
vt 0.6665446 0.2001221
vt 0.6665446 0.2665446
vt 0.6001221 0.2665446
vt 0.06678874 0.4667887
vt 0.1332113 0.4667887
vt 0.1332113 0.5332112
vt 0.06678874 0.5332112

# Normal
vn 0 0 -1

# Mesh description
g Jenns_Apartment2-(1)_mesh_0003

# Faces
f 1/1/1 2/2/1 3/3/1 4/4/1
f 5/5/1 6/6/1 7/7/1 8/8/1
f 9/9/1 10/10/1 11/11/1 12/12/1
f 13/13/1 14/14/1 15/15/1 16/16/1
f 17/5/1 18/6/1 19/7/1 20/8/1
f 21/17/1 22/18/1 23/19/1 24/20/1
f 25/21/1 26/22/1 27/23/1 28/24/1
f 29/25/1 30/26/1 31/27/1 32/28/1
f 33/5/1 34/6/1 35/7/1 36/8/1
f 37/5/1 38/6/1 39/7/1 40/8/1
f 41/29/1 42/30/1 43/31/1 44/32/1
f 45/33/1 46/34/1 47/35/1 48/36/1
f 49/37/1 50/38/1 51/39/1 52/40/1
f 53/41/1 54/42/1 55/43/1 56/44/1
f 57/45/1 58/46/1 59/47/1 60/48/1
f 61/49/1 62/50/1 63/51/1 64/52/1
f 65/53/1 66/54/1 67/55/1 68/56/1
f 69/57/1 70/58/1 71/59/1 72/60/1
f 73/61/1 74/62/1 75/63/1 76/64/1
f 77/65/1 78/66/1 79/67/1 80/68/1
f 81/69/1 82/70/1 83/71/1 84/72/1
f 85/73/1 86/74/1 87/75/1 88/76/1
f 89/77/1 90/78/1 91/79/1 92/80/1
f 93/81/1 94/82/1 95/83/1 96/84/1
f 97/85/1 98/86/1 99/87/1 100/88/1
f 101/89/1 102/90/1 103/91/1 104/92/1

