# Tiled2Unity generated file. Do not modify by hand.
# Wavefront file for 'LovePlusTown_mesh_0002.obj'

# Vertices (Count = 264)
v -3.52 -7.68 0
v -3.84 -7.68 0
v -3.84 -7.36 0
v -3.52 -7.36 0
v -2.56 -7.68 0
v -2.88 -7.68 0
v -2.88 -7.36 0
v -2.56 -7.36 0
v -2.24 -7.68 0
v -2.56 -7.68 0
v -2.56 -7.36 0
v -2.24 -7.36 0
v -0.96 -7.68 0
v -1.28 -7.68 0
v -1.28 -7.36 0
v -0.96 -7.36 0
v 0 -7.68 0
v -0.32 -7.68 0
v -0.32 -7.36 0
v 0 -7.36 0
v -3.52 -7.36 0
v -3.84 -7.36 0
v -3.84 -7.04 0
v -3.52 -7.04 0
v -2.56 -7.36 0
v -2.88 -7.36 0
v -2.88 -7.04 0
v -2.56 -7.04 0
v -2.24 -7.36 0
v -2.56 -7.36 0
v -2.56 -7.04 0
v -2.24 -7.04 0
v -0.96 -7.36 0
v -1.28 -7.36 0
v -1.28 -7.04 0
v -0.96 -7.04 0
v 0 -7.36 0
v -0.32 -7.36 0
v -0.32 -7.04 0
v 0 -7.04 0
v -8 -5.12 0
v -8.32 -5.12 0
v -8.32 -4.8 0
v -8 -4.8 0
v -6.72 -5.12 0
v -7.04 -5.12 0
v -7.04 -4.8 0
v -6.72 -4.8 0
v -8 -4.8 0
v -8.32 -4.8 0
v -8.32 -4.48 0
v -8 -4.48 0
v -7.36 -4.8 0
v -7.68 -4.8 0
v -7.68 -4.48 0
v -7.36 -4.48 0
v -6.72 -4.8 0
v -7.04 -4.8 0
v -7.04 -4.48 0
v -6.72 -4.48 0
v -8 -4.48 0
v -8.32 -4.48 0
v -8.32 -4.16 0
v -8 -4.16 0
v -7.68 -4.48 0
v -8 -4.48 0
v -8 -4.16 0
v -7.68 -4.16 0
v -7.36 -4.48 0
v -7.68 -4.48 0
v -7.68 -4.16 0
v -7.36 -4.16 0
v -7.04 -4.48 0
v -7.36 -4.48 0
v -7.36 -4.16 0
v -7.04 -4.16 0
v -8 -4.16 0
v -8.32 -4.16 0
v -8.32 -3.84 0
v -8 -3.84 0
v -7.68 -4.16 0
v -8 -4.16 0
v -8 -3.84 0
v -7.68 -3.84 0
v -7.36 -4.16 0
v -7.68 -4.16 0
v -7.68 -3.84 0
v -7.36 -3.84 0
v -7.04 -4.16 0
v -7.36 -4.16 0
v -7.36 -3.84 0
v -7.04 -3.84 0
v -7.68 -3.84 0
v -8 -3.84 0
v -8 -3.52 0
v -7.68 -3.52 0
v -7.36 -3.84 0
v -7.68 -3.84 0
v -7.68 -3.52 0
v -7.36 -3.52 0
v -7.04 -3.84 0
v -7.36 -3.84 0
v -7.36 -3.52 0
v -7.04 -3.52 0
v -7.68 -3.52 0
v -8 -3.52 0
v -8 -3.2 0
v -7.68 -3.2 0
v -7.04 -3.52 0
v -7.36 -3.52 0
v -7.36 -3.2 0
v -7.04 -3.2 0
v -15.04 -2.88 0
v -15.36 -2.88 0
v -15.36 -2.56 0
v -15.04 -2.56 0
v -15.04 -2.56 0
v -15.36 -2.56 0
v -15.36 -2.24 0
v -15.04 -2.24 0
v -16 -2.24 0
v -16.32 -2.24 0
v -16.32 -1.92 0
v -16 -1.92 0
v -15.36 -2.24 0
v -15.68 -2.24 0
v -15.68 -1.92 0
v -15.36 -1.92 0
v -16 -1.92 0
v -16.32 -1.92 0
v -16.32 -1.6 0
v -16 -1.6 0
v -15.36 -1.92 0
v -15.68 -1.92 0
v -15.68 -1.6 0
v -15.36 -1.6 0
v -15.68 -1.6 0
v -16 -1.6 0
v -16 -1.28 0
v -15.68 -1.28 0
v -16.64 -1.28 0
v -16.96 -1.28 0
v -16.96 -0.96 0
v -16.64 -0.96 0
v -15.68 -1.28 0
v -16 -1.28 0
v -16 -0.96 0
v -15.68 -0.96 0
v -15.36 -1.28 0
v -15.68 -1.28 0
v -15.68 -0.96 0
v -15.36 -0.96 0
v -16.96 -0.96 0
v -17.28 -0.96 0
v -17.28 -0.64 0
v -16.96 -0.64 0
v -16.64 -0.96 0
v -16.96 -0.96 0
v -16.96 -0.64 0
v -16.64 -0.64 0
v -15.36 -0.96 0
v -15.68 -0.96 0
v -15.68 -0.64 0
v -15.36 -0.64 0
v -17.28 -0.64 0
v -17.6 -0.64 0
v -17.6 -0.32 0
v -17.28 -0.32 0
v -16.96 -0.64 0
v -17.28 -0.64 0
v -17.28 -0.32 0
v -16.96 -0.32 0
v -16.64 -0.64 0
v -16.96 -0.64 0
v -16.96 -0.32 0
v -16.64 -0.32 0
v -16 -0.64 0
v -16.32 -0.64 0
v -16.32 -0.32 0
v -16 -0.32 0
v -15.36 -0.64 0
v -15.68 -0.64 0
v -15.68 -0.32 0
v -15.36 -0.32 0
v -14.72 -0.64 0
v -15.04 -0.64 0
v -15.04 -0.32 0
v -14.72 -0.32 0
v -3.2 -0.64 0
v -3.52 -0.64 0
v -3.52 -0.32 0
v -3.2 -0.32 0
v -2.88 -0.64 0
v -3.2 -0.64 0
v -3.2 -0.32 0
v -2.88 -0.32 0
v -2.24 -0.64 0
v -2.56 -0.64 0
v -2.56 -0.32 0
v -2.24 -0.32 0
v -1.6 -0.64 0
v -1.92 -0.64 0
v -1.92 -0.32 0
v -1.6 -0.32 0
v -1.28 -0.64 0
v -1.6 -0.64 0
v -1.6 -0.32 0
v -1.28 -0.32 0
v -0.96 -0.64 0
v -1.28 -0.64 0
v -1.28 -0.32 0
v -0.96 -0.32 0
v -0.32 -0.64 0
v -0.64 -0.64 0
v -0.64 -0.32 0
v -0.32 -0.32 0
v -17.28 -0.32 0
v -17.6 -0.32 0
v -17.6 0 0
v -17.28 0 0
v -16.64 -0.32 0
v -16.96 -0.32 0
v -16.96 0 0
v -16.64 0 0
v -16 -0.32 0
v -16.32 -0.32 0
v -16.32 0 0
v -16 0 0
v -15.36 -0.32 0
v -15.68 -0.32 0
v -15.68 0 0
v -15.36 0 0
v -14.72 -0.32 0
v -15.04 -0.32 0
v -15.04 0 0
v -14.72 0 0
v -3.2 -0.32 0
v -3.52 -0.32 0
v -3.52 0 0
v -3.2 0 0
v -2.88 -0.32 0
v -3.2 -0.32 0
v -3.2 0 0
v -2.88 0 0
v -2.24 -0.32 0
v -2.56 -0.32 0
v -2.56 0 0
v -2.24 0 0
v -1.6 -0.32 0
v -1.92 -0.32 0
v -1.92 0 0
v -1.6 0 0
v -1.28 -0.32 0
v -1.6 -0.32 0
v -1.6 0 0
v -1.28 0 0
v -0.96 -0.32 0
v -1.28 -0.32 0
v -1.28 0 0
v -0.96 0 0
v -0.32 -0.32 0
v -0.64 -0.32 0
v -0.64 0 0
v -0.32 0 0

# Texture cooridinates (Count = 8)
vt 0.1667887 0.9131656
vt 0.1998779 0.9131656
vt 0.1998779 0.9563997
vt 0.1667887 0.9563997
vt 0.1667887 0.9566438
vt 0.1998779 0.9566438
vt 0.1998779 0.9998779
vt 0.1667887 0.9998779

# Normal
vn 0 0 -1

# Mesh description
g LovePlusTown_mesh_0002

# Faces
f 1/1/1 2/2/1 3/3/1 4/4/1
f 5/1/1 6/2/1 7/3/1 8/4/1
f 9/1/1 10/2/1 11/3/1 12/4/1
f 13/1/1 14/2/1 15/3/1 16/4/1
f 17/1/1 18/2/1 19/3/1 20/4/1
f 21/5/1 22/6/1 23/7/1 24/8/1
f 25/5/1 26/6/1 27/7/1 28/8/1
f 29/5/1 30/6/1 31/7/1 32/8/1
f 33/5/1 34/6/1 35/7/1 36/8/1
f 37/5/1 38/6/1 39/7/1 40/8/1
f 41/1/1 42/2/1 43/3/1 44/4/1
f 45/1/1 46/2/1 47/3/1 48/4/1
f 49/5/1 50/6/1 51/7/1 52/8/1
f 53/1/1 54/2/1 55/3/1 56/4/1
f 57/5/1 58/6/1 59/7/1 60/8/1
f 61/1/1 62/2/1 63/3/1 64/4/1
f 65/1/1 66/2/1 67/3/1 68/4/1
f 69/5/1 70/6/1 71/7/1 72/8/1
f 73/1/1 74/2/1 75/3/1 76/4/1
f 77/5/1 78/6/1 79/7/1 80/8/1
f 81/5/1 82/6/1 83/7/1 84/8/1
f 85/1/1 86/2/1 87/3/1 88/4/1
f 89/5/1 90/6/1 91/7/1 92/8/1
f 93/1/1 94/2/1 95/3/1 96/4/1
f 97/5/1 98/6/1 99/7/1 100/8/1
f 101/1/1 102/2/1 103/3/1 104/4/1
f 105/5/1 106/6/1 107/7/1 108/8/1
f 109/5/1 110/6/1 111/7/1 112/8/1
f 113/1/1 114/2/1 115/3/1 116/4/1
f 117/5/1 118/6/1 119/7/1 120/8/1
f 121/1/1 122/2/1 123/3/1 124/4/1
f 125/1/1 126/2/1 127/3/1 128/4/1
f 129/5/1 130/6/1 131/7/1 132/8/1
f 133/5/1 134/6/1 135/7/1 136/8/1
f 137/1/1 138/2/1 139/3/1 140/4/1
f 141/1/1 142/2/1 143/3/1 144/4/1
f 145/5/1 146/6/1 147/7/1 148/8/1
f 149/1/1 150/2/1 151/3/1 152/4/1
f 153/1/1 154/2/1 155/3/1 156/4/1
f 157/5/1 158/6/1 159/7/1 160/8/1
f 161/5/1 162/6/1 163/7/1 164/8/1
f 165/1/1 166/2/1 167/3/1 168/4/1
f 169/5/1 170/6/1 171/7/1 172/8/1
f 173/1/1 174/2/1 175/3/1 176/4/1
f 177/1/1 178/2/1 179/3/1 180/4/1
f 181/1/1 182/2/1 183/3/1 184/4/1
f 185/1/1 186/2/1 187/3/1 188/4/1
f 189/1/1 190/2/1 191/3/1 192/4/1
f 193/1/1 194/2/1 195/3/1 196/4/1
f 197/1/1 198/2/1 199/3/1 200/4/1
f 201/1/1 202/2/1 203/3/1 204/4/1
f 205/1/1 206/2/1 207/3/1 208/4/1
f 209/1/1 210/2/1 211/3/1 212/4/1
f 213/1/1 214/2/1 215/3/1 216/4/1
f 217/5/1 218/6/1 219/7/1 220/8/1
f 221/5/1 222/6/1 223/7/1 224/8/1
f 225/5/1 226/6/1 227/7/1 228/8/1
f 229/5/1 230/6/1 231/7/1 232/8/1
f 233/5/1 234/6/1 235/7/1 236/8/1
f 237/5/1 238/6/1 239/7/1 240/8/1
f 241/5/1 242/6/1 243/7/1 244/8/1
f 245/5/1 246/6/1 247/7/1 248/8/1
f 249/5/1 250/6/1 251/7/1 252/8/1
f 253/5/1 254/6/1 255/7/1 256/8/1
f 257/5/1 258/6/1 259/7/1 260/8/1
f 261/5/1 262/6/1 263/7/1 264/8/1

