# Tiled2Unity generated file. Do not modify by hand.
# Wavefront file for 'Jenn's-Apartment2_mesh_0007.obj'

# Vertices (Count = 108)
v 0 -1.6 0
v -0.32 -1.6 0
v -0.32 -1.28 0
v 0 -1.28 0
v -3.52 -1.6 0
v -3.84 -1.6 0
v -3.84 -1.28 0
v -3.52 -1.28 0
v 0 -1.92 0
v -0.32 -1.92 0
v -0.32 -1.6 0
v 0 -1.6 0
v -1.6 -1.92 0
v -1.92 -1.92 0
v -1.92 -1.6 0
v -1.6 -1.6 0
v -1.92 -1.92 0
v -2.24 -1.92 0
v -2.24 -1.6 0
v -1.92 -1.6 0
v -2.24 -1.92 0
v -2.56 -1.92 0
v -2.56 -1.6 0
v -2.24 -1.6 0
v -3.52 -1.92 0
v -3.84 -1.92 0
v -3.84 -1.6 0
v -3.52 -1.6 0
v 0 -2.24 0
v -0.32 -2.24 0
v -0.32 -1.92 0
v 0 -1.92 0
v -0.32 -2.24 0
v -0.64 -2.24 0
v -0.64 -1.92 0
v -0.32 -1.92 0
v -0.64 -2.24 0
v -0.96 -2.24 0
v -0.96 -1.92 0
v -0.64 -1.92 0
v -1.28 -2.24 0
v -1.6 -2.24 0
v -1.6 -1.92 0
v -1.28 -1.92 0
v -1.6 -2.24 0
v -1.92 -2.24 0
v -1.92 -1.92 0
v -1.6 -1.92 0
v -2.24 -2.24 0
v -2.56 -2.24 0
v -2.56 -1.92 0
v -2.24 -1.92 0
v -2.56 -2.24 0
v -2.88 -2.24 0
v -2.88 -1.92 0
v -2.56 -1.92 0
v -2.88 -2.24 0
v -3.2 -2.24 0
v -3.2 -1.92 0
v -2.88 -1.92 0
v -3.2 -2.24 0
v -3.52 -2.24 0
v -3.52 -1.92 0
v -3.2 -1.92 0
v -3.52 -2.24 0
v -3.84 -2.24 0
v -3.84 -1.92 0
v -3.52 -1.92 0
v 0 -4.48 0
v -0.32 -4.48 0
v -0.32 -4.16 0
v 0 -4.16 0
v -0.32 -4.48 0
v -0.64 -4.48 0
v -0.64 -4.16 0
v -0.32 -4.16 0
v -0.64 -4.48 0
v -0.96 -4.48 0
v -0.96 -4.16 0
v -0.64 -4.16 0
v -1.28 -4.48 0
v -1.6 -4.48 0
v -1.6 -4.16 0
v -1.28 -4.16 0
v -1.6 -4.48 0
v -1.92 -4.48 0
v -1.92 -4.16 0
v -1.6 -4.16 0
v -1.92 -4.48 0
v -2.24 -4.48 0
v -2.24 -4.16 0
v -1.92 -4.16 0
v -2.56 -4.48 0
v -2.88 -4.48 0
v -2.88 -4.16 0
v -2.56 -4.16 0
v -2.88 -4.48 0
v -3.2 -4.48 0
v -3.2 -4.16 0
v -2.88 -4.16 0
v -3.2 -4.48 0
v -3.52 -4.48 0
v -3.52 -4.16 0
v -3.2 -4.16 0
v -3.52 -4.48 0
v -3.84 -4.48 0
v -3.84 -4.16 0
v -3.52 -4.16 0

# Texture cooridinates (Count = 29)
vt 0.2666667 0.4
vt 0.3333333 0.4
vt 0.3333333 0.4666666
vt 0.2666667 0.4666666
vt 0.4 0.4
vt 0.4 0.4666666
vt 0.4666667 0.4666666
vt 0.4666667 0.5333333
vt 0.4 0.5333333
vt 0.5333334 0.4666666
vt 0.6 0.4666666
vt 0.6 0.5333333
vt 0.5333334 0.5333333
vt 0.6666667 0.4666666
vt 0.6666667 0.5333333
vt 0.2666667 0.3333333
vt 0.3333333 0.3333333
vt 0.1333333 0.4
vt 0.2 0.4
vt 0.2 0.4666666
vt 0.1333333 0.4666666
vt 0.2666667 0.5333333
vt 0.2 0.5333333
vt 0.1333333 0.5333333
vt 0.5333334 0.3333333
vt 0.6 0.3333333
vt 0.6 0.4
vt 0.5333334 0.4
vt 0.4 0.3333333

# Normal
vn 0 0 -1

# Mesh description
g Jenn's-Apartment2_mesh_0007

# Faces
f 1/1/1 2/2/1 3/3/1 4/4/1
f 5/2/1 6/5/1 7/6/1 8/3/1
f 9/1/1 10/2/1 11/3/1 12/4/1
f 13/6/1 14/7/1 15/8/1 16/9/1
f 17/10/1 18/11/1 19/12/1 20/13/1
f 21/11/1 22/14/1 23/15/1 24/12/1
f 25/2/1 26/5/1 27/6/1 28/3/1
f 29/16/1 30/17/1 31/2/1 32/1/1
f 33/18/1 34/19/1 35/20/1 36/21/1
f 37/20/1 38/4/1 39/22/1 40/23/1
f 41/21/1 42/20/1 43/23/1 44/24/1
f 45/25/1 46/26/1 47/27/1 48/28/1
f 49/16/1 50/17/1 51/2/1 52/1/1
f 53/18/1 54/19/1 55/20/1 56/21/1
f 57/18/1 58/19/1 59/20/1 60/21/1
f 61/18/1 62/19/1 63/20/1 64/21/1
f 65/25/1 66/26/1 67/27/1 68/28/1
f 69/16/1 70/17/1 71/2/1 72/1/1
f 73/18/1 74/19/1 75/20/1 76/21/1
f 77/18/1 78/19/1 79/20/1 80/21/1
f 81/7/1 82/10/1 83/13/1 84/8/1
f 85/7/1 86/10/1 87/13/1 88/8/1
f 89/7/1 90/10/1 91/13/1 92/8/1
f 93/7/1 94/10/1 95/13/1 96/8/1
f 97/7/1 98/10/1 99/13/1 100/8/1
f 101/7/1 102/10/1 103/13/1 104/8/1
f 105/17/1 106/29/1 107/5/1 108/2/1

