# Tiled2Unity generated file. Do not modify by hand.
# Wavefront file for 'Jenn's-Apartment2_mesh_0004.obj'

# Vertices (Count = 88)
v -2.56 -0.32 0
v -2.88 -0.32 0
v -2.88 0 0
v -2.56 0 0
v -0.32 -0.64 0
v -0.64 -0.64 0
v -0.64 -0.32 0
v -0.32 -0.32 0
v -1.6 -0.64 0
v -1.92 -0.64 0
v -1.92 -0.32 0
v -1.6 -0.32 0
v -2.56 -0.64 0
v -2.88 -0.64 0
v -2.88 -0.32 0
v -2.56 -0.32 0
v -2.88 -0.64 0
v -3.2 -0.64 0
v -3.2 -0.32 0
v -2.88 -0.32 0
v -1.6 -0.96 0
v -1.92 -0.96 0
v -1.92 -0.64 0
v -1.6 -0.64 0
v -1.92 -0.96 0
v -2.24 -0.96 0
v -2.24 -0.64 0
v -1.92 -0.64 0
v -1.92 -1.28 0
v -2.24 -1.28 0
v -2.24 -0.96 0
v -1.92 -0.96 0
v -1.6 -2.88 0
v -1.92 -2.88 0
v -1.92 -2.56 0
v -1.6 -2.56 0
v -2.24 -2.88 0
v -2.56 -2.88 0
v -2.56 -2.56 0
v -2.24 -2.56 0
v -2.56 -2.88 0
v -2.88 -2.88 0
v -2.88 -2.56 0
v -2.56 -2.56 0
v -2.88 -2.88 0
v -3.2 -2.88 0
v -3.2 -2.56 0
v -2.88 -2.56 0
v -3.2 -2.88 0
v -3.52 -2.88 0
v -3.52 -2.56 0
v -3.2 -2.56 0
v -3.52 -2.88 0
v -3.84 -2.88 0
v -3.84 -2.56 0
v -3.52 -2.56 0
v -2.56 -3.2 0
v -2.88 -3.2 0
v -2.88 -2.88 0
v -2.56 -2.88 0
v -2.88 -3.2 0
v -3.2 -3.2 0
v -3.2 -2.88 0
v -2.88 -2.88 0
v -3.2 -3.2 0
v -3.52 -3.2 0
v -3.52 -2.88 0
v -3.2 -2.88 0
v -3.52 -3.2 0
v -3.84 -3.2 0
v -3.84 -2.88 0
v -3.52 -2.88 0
v -2.88 -3.52 0
v -3.2 -3.52 0
v -3.2 -3.2 0
v -2.88 -3.2 0
v -2.88 -3.84 0
v -3.2 -3.84 0
v -3.2 -3.52 0
v -2.88 -3.52 0
v -0.32 -4.16 0
v -0.64 -4.16 0
v -0.64 -3.84 0
v -0.32 -3.84 0
v -0.96 -4.8 0
v -1.28 -4.8 0
v -1.28 -4.48 0
v -0.96 -4.48 0

# Texture cooridinates (Count = 40)
vt 0.3333333 0.1333333
vt 0.4 0.1333333
vt 0.4 0.2
vt 0.3333333 0.2
vt 0.2666667 0.7333333
vt 0.3333333 0.7333333
vt 0.3333333 0.8
vt 0.2666667 0.8
vt 0.2 0.8
vt 0.2666667 0.8666667
vt 0.2 0.8666667
vt 0.3333333 0.06666666
vt 0.4 0.06666666
vt 0.2 0.7333333
vt 0.4666667 0.1333333
vt 0.4666667 0.2
vt 0.4666667 0.06666666
vt 0.6666667 0.4
vt 0.7333333 0.4
vt 0.7333333 0.4666666
vt 0.6666667 0.4666666
vt 0.8 0.4
vt 0.8 0.4666666
vt 0.8666667 0.4
vt 0.8666667 0.4666666
vt 0.9333333 0.4
vt 0.9333333 0.4666666
vt 0.6666667 0.3333333
vt 0.7333333 0.3333333
vt 0.8 0.3333333
vt 0.8666667 0.3333333
vt 0.9333333 0.3333333
vt 0.6 0.2
vt 0.6666667 0.2
vt 0.6666667 0.2666667
vt 0.6 0.2666667
vt 0.06666667 0.4666666
vt 0.1333333 0.4666666
vt 0.1333333 0.5333333
vt 0.06666667 0.5333333

# Normal
vn 0 0 -1

# Mesh description
g Jenn's-Apartment2_mesh_0004

# Faces
f 1/1/1 2/2/1 3/3/1 4/4/1
f 5/5/1 6/6/1 7/7/1 8/8/1
f 9/9/1 10/8/1 11/10/1 12/11/1
f 13/12/1 14/13/1 15/2/1 16/1/1
f 17/5/1 18/6/1 19/7/1 20/8/1
f 21/14/1 22/5/1 23/8/1 24/9/1
f 25/2/1 26/15/1 27/16/1 28/3/1
f 29/13/1 30/17/1 31/15/1 32/2/1
f 33/5/1 34/6/1 35/7/1 36/8/1
f 37/5/1 38/6/1 39/7/1 40/8/1
f 41/18/1 42/19/1 43/20/1 44/21/1
f 45/19/1 46/22/1 47/23/1 48/20/1
f 49/22/1 50/24/1 51/25/1 52/23/1
f 53/24/1 54/26/1 55/27/1 56/25/1
f 57/28/1 58/29/1 59/19/1 60/18/1
f 61/29/1 62/30/1 63/22/1 64/19/1
f 65/30/1 66/31/1 67/24/1 68/22/1
f 69/31/1 70/32/1 71/26/1 72/24/1
f 73/33/1 74/34/1 75/35/1 76/36/1
f 77/33/1 78/34/1 79/35/1 80/36/1
f 81/33/1 82/34/1 83/35/1 84/36/1
f 85/37/1 86/38/1 87/39/1 88/40/1

