# Tiled2Unity generated file. Do not modify by hand.
# Wavefront file for 'Jenn's-Apartment2_mesh_0008.obj'

# Vertices (Count = 48)
v 0 -1.92 0
v -0.32 -1.92 0
v -0.32 -1.6 0
v 0 -1.6 0
v -0.32 -1.92 0
v -0.64 -1.92 0
v -0.64 -1.6 0
v -0.32 -1.6 0
v -0.64 -1.92 0
v -0.96 -1.92 0
v -0.96 -1.6 0
v -0.64 -1.6 0
v -0.32 -2.88 0
v -0.64 -2.88 0
v -0.64 -2.56 0
v -0.32 -2.56 0
v -2.88 -2.88 0
v -3.2 -2.88 0
v -3.2 -2.56 0
v -2.88 -2.56 0
v 0 -3.52 0
v -0.32 -3.52 0
v -0.32 -3.2 0
v 0 -3.2 0
v -2.56 -3.52 0
v -2.88 -3.52 0
v -2.88 -3.2 0
v -2.56 -3.2 0
v -2.88 -3.52 0
v -3.2 -3.52 0
v -3.2 -3.2 0
v -2.88 -3.2 0
v -3.2 -3.52 0
v -3.52 -3.52 0
v -3.52 -3.2 0
v -3.2 -3.2 0
v -1.6 -4.16 0
v -1.92 -4.16 0
v -1.92 -3.84 0
v -1.6 -3.84 0
v -1.92 -4.16 0
v -2.24 -4.16 0
v -2.24 -3.84 0
v -1.92 -3.84 0
v -2.24 -4.16 0
v -2.56 -4.16 0
v -2.56 -3.84 0
v -2.24 -3.84 0

# Texture cooridinates (Count = 36)
vt 0.6666667 0.06666666
vt 0.7333333 0.06666666
vt 0.7333333 0.1333333
vt 0.6666667 0.1333333
vt 0.8 0.06666666
vt 0.8 0.1333333
vt 0.8666667 0.06666666
vt 0.8666667 0.1333333
vt 0.1333333 0.7333333
vt 0.2 0.7333333
vt 0.2 0.8
vt 0.1333333 0.8
vt 0.6666667 0.9333333
vt 0.7333333 0.9333333
vt 0.7333333 1
vt 0.6666667 1
vt 0.2666667 0.4
vt 0.3333333 0.4
vt 0.3333333 0.4666666
vt 0.2666667 0.4666666
vt 0 0.6
vt 0.06666667 0.6
vt 0.06666667 0.6666666
vt 0 0.6666666
vt 0.1333333 0.6
vt 0.1333333 0.6666666
vt 0.2 0.6
vt 0.2 0.6666666
vt 0.6666667 0.2
vt 0.7333333 0.2
vt 0.7333333 0.2666667
vt 0.6666667 0.2666667
vt 0.8 0.2
vt 0.8 0.2666667
vt 0.8666667 0.2
vt 0.8666667 0.2666667

# Normal
vn 0 0 -1

# Mesh description
g Jenn's-Apartment2_mesh_0008

# Faces
f 1/1/1 2/2/1 3/3/1 4/4/1
f 5/2/1 6/5/1 7/6/1 8/3/1
f 9/5/1 10/7/1 11/8/1 12/6/1
f 13/9/1 14/10/1 15/11/1 16/12/1
f 17/13/1 18/14/1 19/15/1 20/16/1
f 21/17/1 22/18/1 23/19/1 24/20/1
f 25/21/1 26/22/1 27/23/1 28/24/1
f 29/22/1 30/25/1 31/26/1 32/23/1
f 33/25/1 34/27/1 35/28/1 36/26/1
f 37/29/1 38/30/1 39/31/1 40/32/1
f 41/30/1 42/33/1 43/34/1 44/31/1
f 45/33/1 46/35/1 47/36/1 48/34/1

