# Tiled2Unity generated file. Do not modify by hand.
# Wavefront file for 'Jenn's-Apartment2_mesh_0003.obj'

# Vertices (Count = 340)
v 0 -0.32 0
v -0.32 -0.32 0
v -0.32 0 0
v 0 0 0
v -0.32 -0.32 0
v -0.64 -0.32 0
v -0.64 0 0
v -0.32 0 0
v -0.64 -0.32 0
v -0.96 -0.32 0
v -0.96 0 0
v -0.64 0 0
v -0.96 -0.32 0
v -1.28 -0.32 0
v -1.28 0 0
v -0.96 0 0
v -1.28 -0.32 0
v -1.6 -0.32 0
v -1.6 0 0
v -1.28 0 0
v -1.6 -0.32 0
v -1.92 -0.32 0
v -1.92 0 0
v -1.6 0 0
v -2.24 -0.32 0
v -2.56 -0.32 0
v -2.56 0 0
v -2.24 0 0
v -2.56 -0.32 0
v -2.88 -0.32 0
v -2.88 0 0
v -2.56 0 0
v -2.88 -0.32 0
v -3.2 -0.32 0
v -3.2 0 0
v -2.88 0 0
v -3.2 -0.32 0
v -3.52 -0.32 0
v -3.52 0 0
v -3.2 0 0
v -3.52 -0.32 0
v -3.84 -0.32 0
v -3.84 0 0
v -3.52 0 0
v 0 -0.64 0
v -0.32 -0.64 0
v -0.32 -0.32 0
v 0 -0.32 0
v -1.6 -0.64 0
v -1.92 -0.64 0
v -1.92 -0.32 0
v -1.6 -0.32 0
v -1.92 -0.64 0
v -2.24 -0.64 0
v -2.24 -0.32 0
v -1.92 -0.32 0
v -2.24 -0.64 0
v -2.56 -0.64 0
v -2.56 -0.32 0
v -2.24 -0.32 0
v -3.52 -0.64 0
v -3.84 -0.64 0
v -3.84 -0.32 0
v -3.52 -0.32 0
v 0 -0.96 0
v -0.32 -0.96 0
v -0.32 -0.64 0
v 0 -0.64 0
v -1.6 -0.96 0
v -1.92 -0.96 0
v -1.92 -0.64 0
v -1.6 -0.64 0
v -1.92 -0.96 0
v -2.24 -0.96 0
v -2.24 -0.64 0
v -1.92 -0.64 0
v -2.24 -0.96 0
v -2.56 -0.96 0
v -2.56 -0.64 0
v -2.24 -0.64 0
v -3.52 -0.96 0
v -3.84 -0.96 0
v -3.84 -0.64 0
v -3.52 -0.64 0
v 0 -1.28 0
v -0.32 -1.28 0
v -0.32 -0.96 0
v 0 -0.96 0
v -3.52 -1.28 0
v -3.84 -1.28 0
v -3.84 -0.96 0
v -3.52 -0.96 0
v 0 -1.6 0
v -0.32 -1.6 0
v -0.32 -1.28 0
v 0 -1.28 0
v -3.52 -1.6 0
v -3.84 -1.6 0
v -3.84 -1.28 0
v -3.52 -1.28 0
v 0 -1.92 0
v -0.32 -1.92 0
v -0.32 -1.6 0
v 0 -1.6 0
v -1.6 -1.92 0
v -1.92 -1.92 0
v -1.92 -1.6 0
v -1.6 -1.6 0
v -1.92 -1.92 0
v -2.24 -1.92 0
v -2.24 -1.6 0
v -1.92 -1.6 0
v -2.24 -1.92 0
v -2.56 -1.92 0
v -2.56 -1.6 0
v -2.24 -1.6 0
v -3.52 -1.92 0
v -3.84 -1.92 0
v -3.84 -1.6 0
v -3.52 -1.6 0
v 0 -2.24 0
v -0.32 -2.24 0
v -0.32 -1.92 0
v 0 -1.92 0
v -0.32 -2.24 0
v -0.64 -2.24 0
v -0.64 -1.92 0
v -0.32 -1.92 0
v -0.64 -2.24 0
v -0.96 -2.24 0
v -0.96 -1.92 0
v -0.64 -1.92 0
v -1.28 -2.24 0
v -1.6 -2.24 0
v -1.6 -1.92 0
v -1.28 -1.92 0
v -1.6 -2.24 0
v -1.92 -2.24 0
v -1.92 -1.92 0
v -1.6 -1.92 0
v -2.24 -2.24 0
v -2.56 -2.24 0
v -2.56 -1.92 0
v -2.24 -1.92 0
v -2.56 -2.24 0
v -2.88 -2.24 0
v -2.88 -1.92 0
v -2.56 -1.92 0
v -2.88 -2.24 0
v -3.2 -2.24 0
v -3.2 -1.92 0
v -2.88 -1.92 0
v -3.2 -2.24 0
v -3.52 -2.24 0
v -3.52 -1.92 0
v -3.2 -1.92 0
v -3.52 -2.24 0
v -3.84 -2.24 0
v -3.84 -1.92 0
v -3.52 -1.92 0
v 0 -2.56 0
v -0.32 -2.56 0
v -0.32 -2.24 0
v 0 -2.24 0
v -0.32 -2.56 0
v -0.64 -2.56 0
v -0.64 -2.24 0
v -0.32 -2.24 0
v -0.64 -2.56 0
v -0.96 -2.56 0
v -0.96 -2.24 0
v -0.64 -2.24 0
v -1.28 -2.56 0
v -1.6 -2.56 0
v -1.6 -2.24 0
v -1.28 -2.24 0
v -1.6 -2.56 0
v -1.92 -2.56 0
v -1.92 -2.24 0
v -1.6 -2.24 0
v -2.24 -2.56 0
v -2.56 -2.56 0
v -2.56 -2.24 0
v -2.24 -2.24 0
v -2.56 -2.56 0
v -2.88 -2.56 0
v -2.88 -2.24 0
v -2.56 -2.24 0
v -2.88 -2.56 0
v -3.2 -2.56 0
v -3.2 -2.24 0
v -2.88 -2.24 0
v -3.2 -2.56 0
v -3.52 -2.56 0
v -3.52 -2.24 0
v -3.2 -2.24 0
v -3.52 -2.56 0
v -3.84 -2.56 0
v -3.84 -2.24 0
v -3.52 -2.24 0
v 0 -2.88 0
v -0.32 -2.88 0
v -0.32 -2.56 0
v 0 -2.56 0
v -1.6 -2.88 0
v -1.92 -2.88 0
v -1.92 -2.56 0
v -1.6 -2.56 0
v -1.92 -2.88 0
v -2.24 -2.88 0
v -2.24 -2.56 0
v -1.92 -2.56 0
v -2.24 -2.88 0
v -2.56 -2.88 0
v -2.56 -2.56 0
v -2.24 -2.56 0
v -3.52 -2.88 0
v -3.84 -2.88 0
v -3.84 -2.56 0
v -3.52 -2.56 0
v 0 -3.2 0
v -0.32 -3.2 0
v -0.32 -2.88 0
v 0 -2.88 0
v -1.6 -3.2 0
v -1.92 -3.2 0
v -1.92 -2.88 0
v -1.6 -2.88 0
v -1.92 -3.2 0
v -2.24 -3.2 0
v -2.24 -2.88 0
v -1.92 -2.88 0
v -2.24 -3.2 0
v -2.56 -3.2 0
v -2.56 -2.88 0
v -2.24 -2.88 0
v -3.52 -3.2 0
v -3.84 -3.2 0
v -3.84 -2.88 0
v -3.52 -2.88 0
v 0 -3.52 0
v -0.32 -3.52 0
v -0.32 -3.2 0
v 0 -3.2 0
v -3.52 -3.52 0
v -3.84 -3.52 0
v -3.84 -3.2 0
v -3.52 -3.2 0
v 0 -3.84 0
v -0.32 -3.84 0
v -0.32 -3.52 0
v 0 -3.52 0
v -1.6 -3.84 0
v -1.92 -3.84 0
v -1.92 -3.52 0
v -1.6 -3.52 0
v -1.92 -3.84 0
v -2.24 -3.84 0
v -2.24 -3.52 0
v -1.92 -3.52 0
v -2.24 -3.84 0
v -2.56 -3.84 0
v -2.56 -3.52 0
v -2.24 -3.52 0
v -3.52 -3.84 0
v -3.84 -3.84 0
v -3.84 -3.52 0
v -3.52 -3.52 0
v 0 -4.16 0
v -0.32 -4.16 0
v -0.32 -3.84 0
v 0 -3.84 0
v -0.64 -4.16 0
v -0.96 -4.16 0
v -0.96 -3.84 0
v -0.64 -3.84 0
v -1.28 -4.16 0
v -1.6 -4.16 0
v -1.6 -3.84 0
v -1.28 -3.84 0
v -2.56 -4.16 0
v -2.88 -4.16 0
v -2.88 -3.84 0
v -2.56 -3.84 0
v -2.88 -4.16 0
v -3.2 -4.16 0
v -3.2 -3.84 0
v -2.88 -3.84 0
v -3.2 -4.16 0
v -3.52 -4.16 0
v -3.52 -3.84 0
v -3.2 -3.84 0
v -3.52 -4.16 0
v -3.84 -4.16 0
v -3.84 -3.84 0
v -3.52 -3.84 0
v 0 -4.48 0
v -0.32 -4.48 0
v -0.32 -4.16 0
v 0 -4.16 0
v -0.32 -4.48 0
v -0.64 -4.48 0
v -0.64 -4.16 0
v -0.32 -4.16 0
v -0.64 -4.48 0
v -0.96 -4.48 0
v -0.96 -4.16 0
v -0.64 -4.16 0
v -1.28 -4.48 0
v -1.6 -4.48 0
v -1.6 -4.16 0
v -1.28 -4.16 0
v -1.6 -4.48 0
v -1.92 -4.48 0
v -1.92 -4.16 0
v -1.6 -4.16 0
v -1.92 -4.48 0
v -2.24 -4.48 0
v -2.24 -4.16 0
v -1.92 -4.16 0
v -2.24 -4.48 0
v -2.56 -4.48 0
v -2.56 -4.16 0
v -2.24 -4.16 0
v -2.56 -4.48 0
v -2.88 -4.48 0
v -2.88 -4.16 0
v -2.56 -4.16 0
v -2.88 -4.48 0
v -3.2 -4.48 0
v -3.2 -4.16 0
v -2.88 -4.16 0
v -3.2 -4.48 0
v -3.52 -4.48 0
v -3.52 -4.16 0
v -3.2 -4.16 0
v -3.52 -4.48 0
v -3.84 -4.48 0
v -3.84 -4.16 0
v -3.52 -4.16 0

# Texture cooridinates (Count = 55)
vt 0.2666667 0.4666666
vt 0.3333333 0.4666666
vt 0.3333333 0.5333333
vt 0.2666667 0.5333333
vt 0.1333333 0.4
vt 0.2 0.4
vt 0.2 0.4666666
vt 0.1333333 0.4666666
vt 0.4 0.4666666
vt 0.4 0.5333333
vt 0.4666667 0.4666666
vt 0.5333334 0.4666666
vt 0.5333334 0.5333333
vt 0.4666667 0.5333333
vt 0.2666667 0.4
vt 0.3333333 0.4
vt 0.2 0.2666667
vt 0.2666667 0.2666667
vt 0.2666667 0.3333333
vt 0.2 0.3333333
vt 0.3333333 0.2666667
vt 0.3333333 0.3333333
vt 0.4 0.2666667
vt 0.4 0.3333333
vt 0.4 0.4
vt 0.2 0.2
vt 0.2666667 0.2
vt 0.3333333 0.2
vt 0.4 0.2
vt 0.6 0.4666666
vt 0.6 0.5333333
vt 0.6666667 0.4666666
vt 0.6666667 0.5333333
vt 0.5333334 0.3333333
vt 0.6 0.3333333
vt 0.6 0.4
vt 0.5333334 0.4
vt 0.2 0.5333333
vt 0.1333333 0.5333333
vt 0.6666667 0.2666667
vt 0.7333333 0.2666667
vt 0.7333333 0.3333333
vt 0.6666667 0.3333333
vt 0.8 0.2666667
vt 0.8 0.3333333
vt 0.8666667 0.2666667
vt 0.8666667 0.3333333
vt 0.6666667 0.1333333
vt 0.7333333 0.1333333
vt 0.7333333 0.2
vt 0.6666667 0.2
vt 0.8 0.1333333
vt 0.8 0.2
vt 0.8666667 0.1333333
vt 0.8666667 0.2

# Normal
vn 0 0 -1

# Mesh description
g Jenn's-Apartment2_mesh_0003

# Faces
f 1/1/1 2/2/1 3/3/1 4/4/1
f 5/5/1 6/6/1 7/7/1 8/8/1
f 9/5/1 10/6/1 11/7/1 12/8/1
f 13/5/1 14/6/1 15/7/1 16/8/1
f 17/5/1 18/6/1 19/7/1 20/8/1
f 21/2/1 22/9/1 23/10/1 24/3/1
f 25/1/1 26/2/1 27/3/1 28/4/1
f 29/11/1 30/12/1 31/13/1 32/14/1
f 33/11/1 34/12/1 35/13/1 36/14/1
f 37/11/1 38/12/1 39/13/1 40/14/1
f 41/2/1 42/9/1 43/10/1 44/3/1
f 45/15/1 46/16/1 47/2/1 48/1/1
f 49/17/1 50/18/1 51/19/1 52/20/1
f 53/18/1 54/21/1 55/22/1 56/19/1
f 57/21/1 58/23/1 59/24/1 60/22/1
f 61/16/1 62/25/1 63/9/1 64/2/1
f 65/15/1 66/16/1 67/2/1 68/1/1
f 69/26/1 70/27/1 71/18/1 72/17/1
f 73/27/1 74/28/1 75/21/1 76/18/1
f 77/28/1 78/29/1 79/23/1 80/21/1
f 81/16/1 82/25/1 83/9/1 84/2/1
f 85/15/1 86/16/1 87/2/1 88/1/1
f 89/16/1 90/25/1 91/9/1 92/2/1
f 93/15/1 94/16/1 95/2/1 96/1/1
f 97/16/1 98/25/1 99/9/1 100/2/1
f 101/15/1 102/16/1 103/2/1 104/1/1
f 105/9/1 106/11/1 107/14/1 108/10/1
f 109/12/1 110/30/1 111/31/1 112/13/1
f 113/30/1 114/32/1 115/33/1 116/31/1
f 117/16/1 118/25/1 119/9/1 120/2/1
f 121/19/1 122/22/1 123/16/1 124/15/1
f 125/11/1 126/12/1 127/13/1 128/14/1
f 129/2/1 130/9/1 131/10/1 132/3/1
f 133/1/1 134/2/1 135/3/1 136/4/1
f 137/34/1 138/35/1 139/36/1 140/37/1
f 141/19/1 142/22/1 143/16/1 144/15/1
f 145/11/1 146/12/1 147/13/1 148/14/1
f 149/11/1 150/12/1 151/13/1 152/14/1
f 153/11/1 154/12/1 155/13/1 156/14/1
f 157/34/1 158/35/1 159/36/1 160/37/1
f 161/8/1 162/7/1 163/38/1 164/39/1
f 165/11/1 166/12/1 167/13/1 168/14/1
f 169/22/1 170/24/1 171/25/1 172/16/1
f 173/19/1 174/22/1 175/16/1 176/15/1
f 177/7/1 178/1/1 179/4/1 180/38/1
f 181/8/1 182/7/1 183/38/1 184/39/1
f 185/11/1 186/12/1 187/13/1 188/14/1
f 189/11/1 190/12/1 191/13/1 192/14/1
f 193/11/1 194/12/1 195/13/1 196/14/1
f 197/7/1 198/1/1 199/4/1 200/38/1
f 201/15/1 202/16/1 203/2/1 204/1/1
f 205/17/1 206/18/1 207/19/1 208/20/1
f 209/18/1 210/21/1 211/22/1 212/19/1
f 213/21/1 214/23/1 215/24/1 216/22/1
f 217/17/1 218/18/1 219/19/1 220/20/1
f 221/15/1 222/16/1 223/2/1 224/1/1
f 225/26/1 226/27/1 227/18/1 228/17/1
f 229/27/1 230/28/1 231/21/1 232/18/1
f 233/28/1 234/29/1 235/23/1 236/21/1
f 237/16/1 238/25/1 239/9/1 240/2/1
f 241/15/1 242/16/1 243/2/1 244/1/1
f 245/16/1 246/25/1 247/9/1 248/2/1
f 249/15/1 250/16/1 251/2/1 252/1/1
f 253/40/1 254/41/1 255/42/1 256/43/1
f 257/41/1 258/44/1 259/45/1 260/42/1
f 261/44/1 262/46/1 263/47/1 264/45/1
f 265/16/1 266/25/1 267/9/1 268/2/1
f 269/15/1 270/16/1 271/2/1 272/1/1
f 273/11/1 274/12/1 275/13/1 276/14/1
f 277/12/1 278/30/1 279/31/1 280/13/1
f 281/11/1 282/12/1 283/13/1 284/14/1
f 285/12/1 286/30/1 287/31/1 288/13/1
f 289/12/1 290/30/1 291/31/1 292/13/1
f 293/16/1 294/25/1 295/9/1 296/2/1
f 297/19/1 298/22/1 299/16/1 300/15/1
f 301/11/1 302/12/1 303/13/1 304/14/1
f 305/11/1 306/12/1 307/13/1 308/14/1
f 309/11/1 310/12/1 311/13/1 312/14/1
f 313/48/1 314/49/1 315/50/1 316/51/1
f 317/49/1 318/52/1 319/53/1 320/50/1
f 321/52/1 322/54/1 323/55/1 324/53/1
f 325/11/1 326/12/1 327/13/1 328/14/1
f 329/12/1 330/30/1 331/31/1 332/13/1
f 333/12/1 334/30/1 335/31/1 336/13/1
f 337/22/1 338/24/1 339/25/1 340/16/1

